<svg xmlns="http://www.w3.org/2000/svg" xmlns:xlink="http://www.w3.org/1999/xlink" width="500" zoomAndPan="magnify" viewBox="0 0 375 374.999991" height="500" preserveAspectRatio="xMidYMid meet" version="1.0"><defs><g/><clipPath id="ad7276bd27"><path d="M 127.855469 84.097656 L 242.605469 84.097656 L 242.605469 291.097656 L 127.855469 291.097656 Z M 127.855469 84.097656 " clip-rule="nonzero"/></clipPath><clipPath id="6860e53d8c"><path d="M 165.425781 137 L 181 137 L 181 153 L 165.425781 153 Z M 165.425781 137 " clip-rule="nonzero"/></clipPath><clipPath id="0e01567843"><path d="M 168 103.078125 L 196 103.078125 L 196 144 L 168 144 Z M 168 103.078125 " clip-rule="nonzero"/></clipPath><clipPath id="2a6d8c210c"><path d="M 168 103.078125 L 197 103.078125 L 197 145 L 168 145 Z M 168 103.078125 " clip-rule="nonzero"/></clipPath><clipPath id="fe2408f41e"><path d="M 195 103.078125 L 223 103.078125 L 223 144 L 195 144 Z M 195 103.078125 " clip-rule="nonzero"/></clipPath><clipPath id="e4c358df27"><path d="M 194 103.078125 L 223.175781 103.078125 L 223.175781 145 L 194 145 Z M 194 103.078125 " clip-rule="nonzero"/></clipPath><clipPath id="3f1813edc3"><path d="M 192 148 L 205 148 L 205 163.078125 L 192 163.078125 Z M 192 148 " clip-rule="nonzero"/></clipPath><clipPath id="9c9c75c413"><path d="M 97.753906 170.027344 L 276.253906 170.027344 L 276.253906 265.277344 L 97.753906 265.277344 Z M 97.753906 170.027344 " clip-rule="nonzero"/></clipPath></defs><g clip-path="url(#ad7276bd27)"><path fill="#f2e9df" d="M 170.386719 291.097656 C 170.050781 291.097656 169.722656 291.058594 169.394531 290.976562 L 152.171875 286.6875 C 151.714844 286.570312 151.289062 286.382812 150.894531 286.121094 C 150.5 285.859375 150.164062 285.539062 149.878906 285.160156 C 149.59375 284.785156 149.378906 284.371094 149.238281 283.921875 C 149.09375 283.472656 149.03125 283.011719 149.046875 282.539062 L 149.582031 267.714844 C 144.839844 264.605469 140.777344 260.773438 137.398438 256.222656 C 136.257812 254.683594 135.214844 253.085938 134.261719 251.425781 C 133.3125 249.761719 132.464844 248.050781 131.71875 246.289062 C 130.972656 244.527344 130.335938 242.726562 129.804688 240.886719 C 129.269531 239.050781 128.851562 237.1875 128.539062 235.300781 C 128.230469 233.410156 128.03125 231.511719 127.949219 229.601562 C 127.863281 227.6875 127.890625 225.78125 128.035156 223.871094 C 128.179688 221.964844 128.433594 220.070312 128.800781 218.191406 C 129.167969 216.316406 129.648438 214.464844 130.234375 212.644531 L 162.773438 112.367188 C 163.613281 109.753906 164.703125 107.253906 166.050781 104.863281 C 167.394531 102.472656 168.96875 100.242188 170.765625 98.167969 C 172.566406 96.097656 174.554688 94.226562 176.734375 92.558594 C 178.914062 90.890625 181.238281 89.457031 183.707031 88.261719 C 185.855469 87.214844 188.074219 86.359375 190.371094 85.703125 C 192.667969 85.042969 195.003906 84.585938 197.378906 84.335938 C 199.753906 84.085938 202.132812 84.042969 204.515625 84.207031 C 206.902344 84.375 209.25 84.746094 211.570312 85.324219 C 213.785156 85.867188 215.941406 86.59375 218.035156 87.5 C 220.128906 88.40625 222.128906 89.484375 224.042969 90.730469 C 225.953125 91.976562 227.746094 93.375 229.421875 94.925781 C 231.09375 96.476562 232.628906 98.152344 234.019531 99.960938 C 235.761719 102.21875 237.25 104.628906 238.492188 107.191406 C 239.730469 109.757812 240.691406 112.425781 241.371094 115.191406 C 242.054688 117.957031 242.445312 120.761719 242.539062 123.609375 C 242.636719 126.457031 242.4375 129.285156 241.945312 132.089844 L 223.546875 235.886719 C 223.320312 237.175781 223.035156 238.449219 222.703125 239.714844 C 222.371094 240.976562 221.984375 242.226562 221.550781 243.460938 C 221.117188 244.691406 220.632812 245.90625 220.097656 247.097656 C 219.566406 248.292969 218.984375 249.460938 218.355469 250.609375 C 217.726562 251.753906 217.054688 252.875 216.332031 253.964844 C 215.613281 255.054688 214.851562 256.117188 214.046875 257.148438 C 213.238281 258.175781 212.394531 259.171875 211.507812 260.132812 C 210.621094 261.09375 209.695312 262.015625 208.734375 262.902344 C 207.773438 263.789062 206.777344 264.636719 205.746094 265.441406 C 204.714844 266.246094 203.652344 267.007812 202.558594 267.726562 C 201.46875 268.445312 200.347656 269.117188 199.199219 269.746094 C 198.054688 270.375 196.882812 270.957031 195.6875 271.488281 C 194.492188 272.023438 193.28125 272.507812 192.046875 272.941406 C 190.8125 273.375 189.5625 273.757812 188.296875 274.09375 C 187.03125 274.425781 185.757812 274.707031 184.46875 274.9375 C 183.179688 275.164062 181.886719 275.34375 180.582031 275.46875 L 174.097656 288.773438 C 173.75 289.484375 173.242188 290.046875 172.574219 290.464844 C 171.90625 290.882812 171.175781 291.09375 170.386719 291.097656 Z M 170.386719 291.097656 " fill-opacity="1" fill-rule="nonzero"/></g><path fill="#e2843b" d="M 170.386719 286.976562 L 153.167969 282.6875 L 154.023438 258.949219 L 180.785156 265.613281 Z M 170.386719 286.976562 " fill-opacity="1" fill-rule="nonzero"/><path fill="#3f120f" d="M 170.386719 287.664062 C 170.332031 287.664062 170.273438 287.65625 170.21875 287.640625 L 152.988281 283.351562 C 152.832031 283.3125 152.703125 283.230469 152.605469 283.101562 C 152.507812 282.972656 152.460938 282.828125 152.464844 282.664062 L 153.332031 258.925781 C 153.34375 258.707031 153.433594 258.53125 153.609375 258.398438 C 153.78125 258.269531 153.976562 258.230469 154.1875 258.28125 L 180.949219 264.949219 C 181.046875 264.972656 181.140625 265.019531 181.21875 265.085938 C 181.300781 265.148438 181.363281 265.230469 181.40625 265.324219 C 181.449219 265.417969 181.472656 265.515625 181.472656 265.621094 C 181.46875 265.726562 181.445312 265.824219 181.402344 265.917969 L 171.003906 287.277344 C 170.878906 287.53125 170.671875 287.660156 170.386719 287.664062 Z M 153.890625 282.167969 L 170.042969 286.183594 L 179.800781 266.078125 L 154.679688 259.820312 Z M 153.890625 282.167969 " fill-opacity="1" fill-rule="nonzero"/><path fill="#f7b917" d="M 165.425781 270.230469 C 163.960938 269.867188 162.519531 269.429688 161.101562 268.917969 C 159.683594 268.40625 158.296875 267.824219 156.9375 267.171875 C 155.578125 266.515625 154.257812 265.792969 152.972656 265.003906 C 151.6875 264.214844 150.449219 263.363281 149.253906 262.445312 C 148.054688 261.53125 146.910156 260.554688 145.8125 259.519531 C 144.714844 258.488281 143.675781 257.398438 142.691406 256.257812 C 141.707031 255.117188 140.78125 253.929688 139.917969 252.695312 C 139.058594 251.457031 138.257812 250.183594 137.527344 248.863281 C 136.796875 247.546875 136.132812 246.195312 135.542969 244.8125 C 134.949219 243.425781 134.429688 242.015625 133.980469 240.574219 C 133.535156 239.136719 133.160156 237.679688 132.863281 236.203125 C 132.566406 234.726562 132.34375 233.238281 132.199219 231.738281 C 132.054688 230.238281 131.984375 228.734375 131.996094 227.230469 C 132.003906 225.722656 132.089844 224.222656 132.253906 222.722656 C 132.417969 221.226562 132.65625 219.742188 132.972656 218.269531 C 133.289062 216.796875 133.679688 215.34375 134.144531 213.910156 L 166.695312 113.628906 C 167.050781 112.535156 167.457031 111.460938 167.914062 110.40625 C 168.371094 109.347656 168.875 108.316406 169.425781 107.308594 C 169.980469 106.296875 170.578125 105.316406 171.226562 104.367188 C 171.871094 103.414062 172.558594 102.492188 173.289062 101.605469 C 174.023438 100.714844 174.792969 99.863281 175.605469 99.050781 C 176.417969 98.234375 177.265625 97.457031 178.152344 96.722656 C 179.035156 95.984375 179.953125 95.292969 180.902344 94.644531 C 181.851562 93.992188 182.832031 93.390625 183.839844 92.832031 C 184.84375 92.273438 185.875 91.761719 186.929688 91.300781 C 187.984375 90.839844 189.058594 90.429688 190.152344 90.070312 C 191.246094 89.707031 192.351562 89.398438 193.476562 89.144531 C 194.597656 88.886719 195.730469 88.683594 196.871094 88.53125 C 198.011719 88.382812 199.15625 88.285156 200.308594 88.242188 C 201.457031 88.199219 202.609375 88.210938 203.757812 88.273438 C 204.90625 88.339844 206.050781 88.457031 207.191406 88.628906 C 208.328125 88.804688 209.457031 89.027344 210.574219 89.304688 C 211.691406 89.585938 212.792969 89.914062 213.878906 90.296875 C 214.964844 90.679688 216.027344 91.109375 217.074219 91.589844 C 218.121094 92.074219 219.140625 92.601562 220.136719 93.179688 C 221.132812 93.757812 222.097656 94.378906 223.035156 95.046875 C 223.972656 95.714844 224.875 96.425781 225.746094 97.179688 C 226.617188 97.933594 227.449219 98.726562 228.246094 99.554688 C 229.042969 100.386719 229.796875 101.253906 230.511719 102.15625 C 231.226562 103.058594 231.894531 103.992188 232.523438 104.957031 C 233.148438 105.921875 233.730469 106.914062 234.261719 107.929688 C 234.796875 108.949219 235.28125 109.992188 235.714844 111.058594 C 236.152344 112.121094 236.535156 113.203125 236.871094 114.304688 C 237.203125 115.40625 237.484375 116.519531 237.714844 117.648438 C 237.945312 118.773438 238.121094 119.910156 238.242188 121.054688 C 238.363281 122.199219 238.433594 123.34375 238.445312 124.496094 C 238.460938 125.644531 238.421875 126.792969 238.328125 127.9375 C 238.234375 129.085938 238.089844 130.226562 237.886719 131.359375 L 219.484375 235.171875 C 219.222656 236.652344 218.886719 238.121094 218.472656 239.566406 C 218.058594 241.015625 217.574219 242.441406 217.015625 243.839844 C 216.457031 245.238281 215.828125 246.601562 215.128906 247.9375 C 214.429688 249.273438 213.664062 250.566406 212.832031 251.820312 C 212 253.078125 211.105469 254.289062 210.148438 255.453125 C 209.191406 256.617188 208.179688 257.726562 207.105469 258.789062 C 206.035156 259.847656 204.914062 260.851562 203.742188 261.792969 C 202.566406 262.738281 201.347656 263.621094 200.082031 264.441406 C 198.820312 265.261719 197.515625 266.015625 196.175781 266.703125 C 194.832031 267.386719 193.460938 268.003906 192.054688 268.550781 C 190.648438 269.09375 189.21875 269.566406 187.765625 269.964844 C 186.3125 270.367188 184.84375 270.6875 183.355469 270.9375 C 181.871094 271.183594 180.375 271.355469 178.871094 271.453125 C 177.367188 271.546875 175.859375 271.566406 174.355469 271.503906 C 172.847656 271.445312 171.347656 271.308594 169.855469 271.097656 C 168.363281 270.882812 166.886719 270.59375 165.425781 270.230469 Z M 165.425781 270.230469 " fill-opacity="1" fill-rule="nonzero"/><path fill="#e5a424" d="M 207.539062 228.144531 L 210.34375 216.910156 L 222.199219 219.867188 L 222.722656 216.90625 L 211.078125 214.003906 L 213.878906 202.773438 L 224.757812 205.480469 L 225.28125 202.519531 L 214.609375 199.863281 L 217.410156 188.628906 L 227.308594 191.097656 L 227.832031 188.136719 L 218.132812 185.730469 L 220.9375 174.503906 L 229.871094 176.726562 L 230.394531 173.769531 L 221.679688 171.597656 L 224.484375 160.363281 L 232.386719 162.332031 L 232.914062 159.375 L 225.171875 157.445312 L 227.976562 146.214844 L 234.933594 147.929688 L 235.457031 144.972656 L 228.699219 143.292969 L 231.5 132.058594 L 237.484375 133.550781 L 237.871094 131.34375 C 237.914062 131.089844 237.957031 130.839844 237.996094 130.585938 L 232.226562 129.148438 L 235.03125 117.917969 L 237.894531 118.628906 C 237.703125 117.523438 237.460938 116.433594 237.167969 115.359375 L 235.757812 115.015625 L 236.335938 112.703125 C 235.78125 111.148438 235.128906 109.636719 234.375 108.167969 L 232.847656 114.289062 L 221.601562 111.488281 L 224.40625 100.257812 L 230.113281 101.675781 C 228.925781 100.226562 227.636719 98.875 226.242188 97.625 L 225.132812 97.34375 L 225.273438 96.78125 C 224.441406 96.082031 223.574219 95.421875 222.675781 94.796875 L 222.222656 96.621094 L 210.976562 93.820312 L 212.007812 89.699219 C 211.53125 89.558594 211.046875 89.429688 210.5625 89.304688 C 210.074219 89.183594 209.585938 89.070312 209.097656 88.960938 L 208.066406 93.082031 L 196.835938 90.285156 L 197.292969 88.453125 C 196.203125 88.585938 195.125 88.761719 194.0625 88.988281 L 193.933594 89.589844 L 192.804688 89.3125 C 190.992188 89.765625 189.21875 90.355469 187.496094 91.078125 L 193.203125 92.484375 L 190.402344 103.71875 L 179.160156 100.925781 L 180.691406 94.789062 C 179.335938 95.734375 178.046875 96.765625 176.828125 97.882812 L 176.25 100.207031 L 174.832031 99.863281 C 174.070312 100.671875 173.34375 101.523438 172.652344 102.40625 L 175.523438 103.125 L 172.71875 114.355469 L 166.945312 112.917969 C 166.863281 113.160156 166.777344 113.402344 166.695312 113.644531 L 166.007812 115.773438 L 171.996094 117.265625 L 169.195312 128.496094 L 162.429688 126.8125 L 161.503906 129.671875 L 168.46875 131.390625 L 165.664062 142.621094 L 157.921875 140.691406 L 156.992188 143.554688 L 164.941406 145.53125 L 162.132812 156.761719 L 153.410156 154.585938 L 152.480469 157.445312 L 161.417969 159.667969 L 158.617188 170.890625 L 148.914062 168.488281 L 147.972656 171.324219 L 157.878906 173.789062 L 155.078125 185.023438 L 144.394531 182.371094 L 143.46875 185.234375 L 154.363281 187.941406 L 151.546875 199.175781 L 139.882812 196.269531 L 138.957031 199.140625 L 150.824219 202.097656 L 148.019531 213.332031 L 135.375 210.183594 L 134.449219 213.039062 L 147.292969 216.242188 L 144.488281 227.472656 L 132.113281 224.382812 C 132.042969 225.40625 132.007812 226.425781 132 227.445312 L 143.765625 230.375 L 140.957031 241.597656 L 133.761719 239.808594 C 134.097656 240.953125 134.476562 242.078125 134.902344 243.183594 L 140.230469 244.511719 L 138.667969 250.769531 C 139.308594 251.800781 139.984375 252.792969 140.707031 253.765625 L 140.9375 254.066406 L 143.144531 245.234375 L 154.382812 248.035156 L 151.582031 259.269531 L 143.628906 257.285156 C 145.003906 258.785156 146.472656 260.183594 148.039062 261.476562 L 150.859375 262.164062 L 150.550781 263.382812 C 151.414062 263.992188 152.296875 264.582031 153.207031 265.132812 L 153.769531 262.886719 L 165.019531 265.699219 L 163.988281 269.820312 C 164.46875 269.957031 164.949219 270.09375 165.4375 270.214844 C 165.925781 270.335938 166.414062 270.441406 166.898438 270.558594 L 167.929688 266.4375 L 179.171875 269.242188 L 178.613281 271.488281 C 179.675781 271.425781 180.730469 271.320312 181.777344 271.183594 L 182.085938 269.964844 L 184.890625 270.652344 C 186.886719 270.246094 188.84375 269.703125 190.765625 269.023438 L 182.808594 267.042969 L 185.601562 255.804688 L 196.839844 258.609375 L 194.640625 267.433594 C 195.855469 266.871094 197.046875 266.25 198.195312 265.582031 L 199.753906 259.332031 L 205.078125 260.660156 C 205.972656 259.882812 206.835938 259.066406 207.664062 258.214844 L 200.480469 256.425781 L 203.28125 245.191406 L 215.042969 248.121094 C 215.519531 247.222656 215.960938 246.300781 216.378906 245.375 L 204.003906 242.28125 L 206.808594 231.050781 L 219.648438 234.246094 L 220.167969 231.289062 Z M 155.113281 245.125 L 143.875 242.328125 L 146.675781 231.082031 L 157.917969 233.878906 Z M 158.644531 230.984375 L 147.398438 228.183594 L 150.203125 216.953125 L 161.449219 219.746094 Z M 162.171875 216.84375 L 150.925781 214.042969 L 153.730469 202.808594 L 164.972656 205.613281 Z M 165.707031 202.703125 L 154.464844 199.902344 L 157.265625 188.667969 L 168.507812 191.46875 Z M 169.234375 188.5625 L 157.988281 185.75 L 160.792969 174.519531 L 172.035156 177.316406 Z M 172.761719 174.414062 L 161.515625 171.617188 L 164.332031 160.394531 L 175.574219 163.195312 Z M 176.285156 160.285156 L 165.042969 157.480469 L 167.847656 146.253906 L 179.089844 149.058594 Z M 179.816406 146.140625 L 168.574219 143.339844 L 171.378906 132.105469 L 182.617188 134.921875 Z M 183.34375 132 L 172.101562 129.199219 L 174.90625 117.96875 L 186.148438 120.765625 Z M 186.875 117.859375 L 175.632812 115.058594 L 178.425781 103.828125 L 189.667969 106.628906 Z M 165.730469 262.78125 L 154.496094 259.984375 L 157.300781 248.75 L 168.535156 251.546875 Z M 169.261719 248.640625 L 158.023438 245.847656 L 160.828125 234.617188 L 172.0625 237.414062 Z M 172.789062 234.515625 L 161.554688 231.71875 L 164.359375 220.484375 L 175.59375 223.285156 Z M 176.316406 220.375 L 165.085938 217.578125 L 167.886719 206.355469 L 179.113281 209.136719 Z M 179.847656 206.234375 L 168.613281 203.433594 L 171.414062 192.203125 L 182.652344 195 Z M 183.378906 192.089844 L 172.140625 189.292969 L 174.945312 178.058594 L 186.179688 180.859375 Z M 186.902344 177.949219 L 175.675781 175.144531 L 178.476562 163.921875 L 189.707031 166.71875 Z M 190.433594 163.816406 L 179.199219 161.023438 L 182.003906 149.789062 L 193.234375 152.589844 Z M 193.960938 149.675781 L 182.726562 146.878906 L 185.527344 135.644531 L 196.765625 138.441406 Z M 197.492188 135.535156 L 186.257812 132.734375 L 189.058594 121.5 L 200.292969 124.300781 Z M 201.019531 121.390625 L 189.785156 118.59375 L 192.589844 107.359375 L 203.820312 110.160156 Z M 204.546875 107.242188 L 193.3125 104.445312 L 196.117188 93.214844 L 207.351562 96.011719 Z M 179.886719 266.320312 L 168.640625 263.515625 L 171.445312 252.285156 L 182.691406 255.085938 Z M 183.414062 252.175781 L 172.171875 249.375 L 174.972656 238.144531 L 186.214844 240.941406 Z M 186.941406 238.035156 L 175.703125 235.234375 L 178.503906 224.003906 L 189.746094 226.800781 Z M 190.472656 223.890625 L 179.230469 221.09375 L 182.035156 209.859375 L 193.277344 212.664062 Z M 194 209.75 L 182.757812 206.953125 L 185.5625 195.707031 L 196.804688 198.511719 Z M 197.53125 195.613281 L 186.289062 192.808594 L 189.078125 181.578125 L 200.332031 184.375 Z M 201.058594 181.46875 L 189.820312 178.667969 L 192.617188 167.445312 L 203.859375 170.242188 Z M 204.585938 167.335938 L 193.34375 164.535156 L 196.148438 153.300781 L 207.390625 156.105469 Z M 208.113281 153.195312 L 196.871094 150.394531 L 199.675781 139.160156 L 210.917969 141.960938 Z M 211.644531 139.042969 L 200.402344 136.242188 L 203.207031 125.007812 L 214.445312 127.808594 Z M 215.175781 124.902344 L 203.933594 122.097656 L 206.734375 110.882812 L 217.976562 113.683594 Z M 218.703125 110.757812 L 207.457031 107.960938 L 210.261719 96.726562 L 221.507812 99.550781 Z M 197.570312 255.683594 L 186.328125 252.902344 L 189.132812 241.667969 L 200.371094 244.472656 Z M 201.109375 241.5625 L 189.871094 238.757812 L 192.671875 227.53125 L 203.914062 230.328125 Z M 204.640625 227.417969 L 193.398438 224.617188 L 196.203125 213.386719 L 207.445312 216.1875 Z M 208.171875 213.277344 L 196.914062 210.476562 L 199.714844 199.242188 L 210.957031 202.039062 Z M 211.683594 199.140625 L 200.441406 196.34375 L 203.246094 185.109375 L 214.488281 187.914062 Z M 215.203125 184.996094 L 203.960938 182.195312 L 206.769531 170.980469 L 218.015625 173.78125 Z M 218.730469 170.863281 L 207.484375 168.0625 L 210.289062 156.828125 L 221.535156 159.628906 Z M 222.257812 156.71875 L 211.015625 153.921875 L 213.828125 142.6875 L 225.066406 145.488281 Z M 225.789062 142.578125 L 214.546875 139.777344 L 217.347656 128.546875 L 228.609375 131.347656 Z M 229.316406 128.4375 L 218.085938 125.648438 L 220.886719 114.417969 L 232.132812 117.21875 Z M 229.316406 128.4375 " fill-opacity="1" fill-rule="nonzero"/><path fill="#3f120f" d="M 176.183594 272.242188 C 175.304688 272.242188 174.425781 272.21875 173.546875 272.167969 C 172.667969 272.117188 171.789062 272.042969 170.917969 271.941406 C 170.042969 271.839844 169.171875 271.710938 168.304688 271.558594 C 167.4375 271.402344 166.578125 271.226562 165.722656 271.023438 C 164.867188 270.816406 164.015625 270.589844 163.175781 270.335938 C 162.332031 270.082031 161.496094 269.800781 160.671875 269.5 C 159.847656 269.195312 159.03125 268.867188 158.222656 268.515625 C 157.417969 268.167969 156.621094 267.792969 155.835938 267.394531 C 155.050781 266.996094 154.277344 266.574219 153.519531 266.132812 C 152.757812 265.6875 152.011719 265.222656 151.28125 264.734375 C 150.546875 264.246094 149.832031 263.738281 149.128906 263.207031 C 148.425781 262.679688 147.742188 262.128906 147.070312 261.558594 C 146.402344 260.988281 145.75 260.398438 145.113281 259.789062 C 144.476562 259.183594 143.863281 258.554688 143.261719 257.910156 C 142.664062 257.265625 142.085938 256.605469 141.527344 255.925781 C 140.96875 255.246094 140.429688 254.550781 139.910156 253.839844 C 139.394531 253.128906 138.898438 252.40625 138.421875 251.664062 C 137.945312 250.925781 137.492188 250.171875 137.0625 249.40625 C 136.632812 248.636719 136.222656 247.859375 135.839844 247.070312 C 135.453125 246.277344 135.09375 245.476562 134.753906 244.664062 C 134.417969 243.851562 134.105469 243.03125 133.816406 242.203125 C 133.523438 241.371094 133.261719 240.535156 133.019531 239.6875 C 132.78125 238.839844 132.566406 237.988281 132.378906 237.128906 C 132.1875 236.273438 132.023438 235.410156 131.886719 234.539062 C 131.746094 233.671875 131.632812 232.800781 131.546875 231.925781 C 131.460938 231.050781 131.398438 230.175781 131.363281 229.296875 C 131.328125 228.417969 131.316406 227.539062 131.335938 226.660156 C 131.351562 225.78125 131.394531 224.902344 131.460938 224.027344 C 131.53125 223.148438 131.625 222.277344 131.742188 221.40625 C 131.863281 220.535156 132.007812 219.667969 132.179688 218.804688 C 132.351562 217.941406 132.546875 217.085938 132.769531 216.234375 C 132.988281 215.382812 133.234375 214.539062 133.507812 213.703125 L 166.050781 113.414062 C 166.574219 111.804688 167.203125 110.234375 167.941406 108.710938 C 168.675781 107.183594 169.515625 105.714844 170.449219 104.304688 C 171.386719 102.894531 172.414062 101.550781 173.53125 100.277344 C 174.648438 99.003906 175.851562 97.8125 177.128906 96.703125 C 178.410156 95.59375 179.761719 94.574219 181.179688 93.648438 C 182.597656 92.722656 184.070312 91.894531 185.601562 91.167969 C 187.132812 90.441406 188.707031 89.820312 190.320312 89.308594 C 191.9375 88.792969 193.578125 88.390625 195.25 88.101562 C 196.917969 87.808594 198.601562 87.632812 200.296875 87.570312 C 201.988281 87.507812 203.679688 87.558594 205.367188 87.726562 C 207.054688 87.894531 208.722656 88.171875 210.371094 88.566406 C 212.019531 88.957031 213.632812 89.460938 215.214844 90.070312 C 216.792969 90.683594 218.328125 91.398438 219.808594 92.21875 C 221.292969 93.039062 222.714844 93.953125 224.074219 94.964844 C 225.433594 95.976562 226.71875 97.078125 227.925781 98.261719 C 229.136719 99.449219 230.261719 100.710938 231.300781 102.050781 C 232.898438 104.117188 234.265625 106.324219 235.402344 108.675781 C 236.539062 111.023438 237.421875 113.46875 238.046875 116 C 238.675781 118.535156 239.03125 121.109375 239.121094 123.71875 C 239.210938 126.328125 239.027344 128.917969 238.574219 131.488281 L 220.164062 235.289062 C 219.847656 237.074219 219.421875 238.832031 218.894531 240.566406 C 218.363281 242.296875 217.730469 243.992188 216.996094 245.648438 C 216.261719 247.304688 215.425781 248.910156 214.496094 250.464844 C 213.566406 252.019531 212.542969 253.511719 211.429688 254.945312 C 210.316406 256.375 209.125 257.734375 207.84375 259.019531 C 206.566406 260.304688 205.21875 261.507812 203.792969 262.628906 C 202.371094 263.753906 200.882812 264.785156 199.332031 265.726562 C 197.785156 266.667969 196.183594 267.511719 194.53125 268.257812 C 188.703125 270.914062 182.585938 272.242188 176.183594 272.242188 Z M 201.683594 88.90625 C 199.789062 88.902344 197.90625 89.050781 196.035156 89.347656 C 194.164062 89.644531 192.328125 90.085938 190.527344 90.671875 C 188.726562 91.253906 186.980469 91.976562 185.292969 92.835938 C 183.605469 93.695312 181.996094 94.683594 180.460938 95.796875 C 178.929688 96.910156 177.496094 98.132812 176.15625 99.472656 C 174.816406 100.8125 173.589844 102.246094 172.476562 103.777344 C 171.363281 105.308594 170.378906 106.917969 169.519531 108.605469 C 168.660156 110.292969 167.9375 112.035156 167.351562 113.835938 L 134.8125 214.117188 C 134.355469 215.527344 133.972656 216.957031 133.660156 218.40625 C 133.351562 219.855469 133.113281 221.316406 132.953125 222.789062 C 132.792969 224.261719 132.707031 225.742188 132.699219 227.222656 C 132.691406 228.707031 132.757812 230.183594 132.898438 231.660156 C 133.042969 233.136719 133.261719 234.597656 133.554688 236.050781 C 133.847656 237.503906 134.214844 238.941406 134.65625 240.355469 C 135.09375 241.769531 135.609375 243.160156 136.191406 244.523438 C 136.773438 245.886719 137.425781 247.214844 138.144531 248.511719 C 138.863281 249.808594 139.648438 251.0625 140.496094 252.28125 C 141.347656 253.496094 142.253906 254.664062 143.222656 255.789062 C 144.191406 256.910156 145.214844 257.980469 146.296875 259 C 147.375 260.015625 148.5 260.976562 149.679688 261.878906 C 150.855469 262.78125 152.078125 263.621094 153.339844 264.398438 C 154.605469 265.175781 155.902344 265.882812 157.238281 266.527344 C 158.578125 267.171875 159.941406 267.746094 161.335938 268.25 C 162.734375 268.753906 164.148438 269.183594 165.589844 269.542969 C 167.941406 270.140625 170.328125 270.53125 172.746094 270.722656 C 175.164062 270.914062 177.578125 270.902344 179.996094 270.683594 C 182.410156 270.464844 184.792969 270.046875 187.136719 269.425781 C 189.480469 268.800781 191.757812 267.988281 193.964844 266.980469 C 195.566406 266.257812 197.117188 265.441406 198.617188 264.527344 C 200.117188 263.617188 201.558594 262.617188 202.941406 261.53125 C 204.320312 260.445312 205.628906 259.277344 206.867188 258.03125 C 208.105469 256.785156 209.261719 255.46875 210.339844 254.085938 C 211.421875 252.699219 212.410156 251.25 213.3125 249.746094 C 214.214844 248.238281 215.023438 246.683594 215.738281 245.078125 C 216.449219 243.476562 217.0625 241.832031 217.578125 240.15625 C 218.089844 238.476562 218.5 236.773438 218.808594 235.042969 L 237.199219 131.238281 C 237.636719 128.761719 237.8125 126.269531 237.726562 123.753906 C 237.644531 121.242188 237.300781 118.765625 236.699219 116.324219 C 236.097656 113.886719 235.25 111.53125 234.15625 109.269531 C 233.0625 107.003906 231.746094 104.878906 230.210938 102.886719 C 228.523438 100.710938 226.613281 98.753906 224.480469 97.015625 C 222.347656 95.273438 220.042969 93.800781 217.570312 92.585938 C 215.097656 91.375 212.519531 90.457031 209.835938 89.835938 C 207.152344 89.214844 204.433594 88.902344 201.679688 88.90625 Z M 201.683594 88.90625 " fill-opacity="1" fill-rule="nonzero"/><path fill="#dd4826" d="M 219.761719 143.578125 C 219.761719 144.054688 219.714844 144.523438 219.621094 144.992188 C 219.527344 145.460938 219.390625 145.914062 219.207031 146.351562 C 219.023438 146.792969 218.796875 147.210938 218.53125 147.605469 C 218.261719 148 217.960938 148.367188 217.621094 148.703125 C 217.28125 149.042969 216.910156 149.34375 216.511719 149.605469 C 216.113281 149.871094 215.691406 150.09375 215.25 150.277344 C 214.804688 150.457031 214.347656 150.597656 213.875 150.6875 C 213.40625 150.78125 212.929688 150.828125 212.449219 150.828125 C 211.96875 150.828125 211.496094 150.78125 211.023438 150.6875 C 210.554688 150.597656 210.09375 150.457031 209.652344 150.277344 C 209.207031 150.09375 208.789062 149.871094 208.386719 149.605469 C 207.988281 149.34375 207.621094 149.042969 207.28125 148.703125 C 206.941406 148.367188 206.636719 148 206.371094 147.605469 C 206.105469 147.210938 205.878906 146.792969 205.695312 146.351562 C 205.511719 145.914062 205.371094 145.460938 205.277344 144.992188 C 205.183594 144.523438 205.136719 144.054688 205.136719 143.578125 C 205.136719 143.101562 205.183594 142.628906 205.277344 142.164062 C 205.371094 141.695312 205.511719 141.242188 205.695312 140.804688 C 205.878906 140.363281 206.105469 139.945312 206.371094 139.550781 C 206.636719 139.152344 206.941406 138.789062 207.28125 138.449219 C 207.621094 138.113281 207.988281 137.8125 208.386719 137.550781 C 208.789062 137.285156 209.207031 137.0625 209.652344 136.878906 C 210.09375 136.695312 210.554688 136.558594 211.023438 136.464844 C 211.496094 136.375 211.96875 136.328125 212.449219 136.328125 C 212.929688 136.328125 213.40625 136.375 213.875 136.464844 C 214.347656 136.558594 214.804688 136.695312 215.25 136.878906 C 215.691406 137.0625 216.113281 137.285156 216.511719 137.550781 C 216.910156 137.8125 217.28125 138.113281 217.621094 138.449219 C 217.960938 138.789062 218.261719 139.152344 218.53125 139.550781 C 218.796875 139.945312 219.019531 140.363281 219.207031 140.804688 C 219.390625 141.242188 219.527344 141.695312 219.621094 142.164062 C 219.714844 142.628906 219.761719 143.101562 219.761719 143.578125 Z M 219.761719 143.578125 " fill-opacity="1" fill-rule="nonzero"/><g clip-path="url(#6860e53d8c)"><path fill="#dd4826" d="M 180.046875 144.816406 C 180.046875 145.292969 180 145.765625 179.90625 146.230469 C 179.8125 146.699219 179.675781 147.152344 179.492188 147.59375 C 179.308594 148.03125 179.082031 148.449219 178.816406 148.84375 C 178.550781 149.242188 178.246094 149.609375 177.90625 149.945312 C 177.566406 150.28125 177.199219 150.582031 176.796875 150.847656 C 176.398438 151.109375 175.976562 151.332031 175.535156 151.515625 C 175.089844 151.699219 174.632812 151.835938 174.164062 151.929688 C 173.691406 152.019531 173.214844 152.066406 172.734375 152.066406 C 172.257812 152.066406 171.78125 152.019531 171.308594 151.929688 C 170.839844 151.835938 170.382812 151.699219 169.9375 151.515625 C 169.496094 151.332031 169.074219 151.109375 168.675781 150.847656 C 168.273438 150.582031 167.90625 150.28125 167.566406 149.945312 C 167.226562 149.609375 166.921875 149.242188 166.65625 148.84375 C 166.390625 148.449219 166.164062 148.03125 165.980469 147.59375 C 165.796875 147.152344 165.660156 146.699219 165.566406 146.230469 C 165.472656 145.765625 165.425781 145.292969 165.425781 144.816406 C 165.425781 144.339844 165.472656 143.871094 165.566406 143.402344 C 165.660156 142.9375 165.796875 142.480469 165.980469 142.042969 C 166.164062 141.601562 166.390625 141.183594 166.65625 140.789062 C 166.921875 140.394531 167.226562 140.027344 167.566406 139.691406 C 167.90625 139.351562 168.273438 139.054688 168.675781 138.789062 C 169.074219 138.523438 169.496094 138.300781 169.9375 138.117188 C 170.382812 137.9375 170.839844 137.796875 171.308594 137.707031 C 171.78125 137.613281 172.257812 137.566406 172.734375 137.566406 C 173.214844 137.566406 173.691406 137.613281 174.164062 137.707031 C 174.632812 137.796875 175.089844 137.9375 175.535156 138.117188 C 175.976562 138.300781 176.398438 138.523438 176.796875 138.789062 C 177.199219 139.054688 177.566406 139.351562 177.90625 139.691406 C 178.246094 140.027344 178.550781 140.394531 178.816406 140.789062 C 179.082031 141.183594 179.308594 141.601562 179.492188 142.042969 C 179.675781 142.480469 179.8125 142.9375 179.90625 143.402344 C 180 143.871094 180.046875 144.339844 180.046875 144.816406 Z M 180.046875 144.816406 " fill-opacity="1" fill-rule="nonzero"/></g><g clip-path="url(#0e01567843)"><path fill="#f2e9df" d="M 188.300781 104 C 188.703125 104.121094 189.09375 104.273438 189.472656 104.457031 C 189.855469 104.640625 190.222656 104.851562 190.582031 105.097656 C 190.9375 105.339844 191.277344 105.613281 191.605469 105.914062 C 191.933594 106.214844 192.246094 106.546875 192.542969 106.902344 C 192.839844 107.261719 193.121094 107.644531 193.382812 108.050781 C 193.644531 108.460938 193.890625 108.894531 194.113281 109.351562 C 194.339844 109.808594 194.546875 110.289062 194.734375 110.789062 C 194.921875 111.289062 195.085938 111.808594 195.234375 112.347656 C 195.378906 112.890625 195.503906 113.445312 195.609375 114.019531 C 195.710938 114.589844 195.792969 115.179688 195.855469 115.78125 C 195.914062 116.382812 195.953125 116.992188 195.96875 117.617188 C 195.988281 118.242188 195.984375 118.871094 195.957031 119.511719 C 195.929688 120.152344 195.878906 120.796875 195.808594 121.445312 C 195.738281 122.09375 195.644531 122.746094 195.53125 123.402344 C 195.417969 124.054688 195.285156 124.707031 195.128906 125.359375 C 194.972656 126.007812 194.796875 126.65625 194.601562 127.296875 C 194.40625 127.941406 194.191406 128.574219 193.957031 129.203125 C 193.722656 129.832031 193.46875 130.449219 193.199219 131.054688 C 192.929688 131.660156 192.640625 132.253906 192.335938 132.832031 C 192.035156 133.414062 191.714844 133.976562 191.378906 134.523438 C 191.042969 135.070312 190.695312 135.601562 190.332031 136.109375 C 189.972656 136.621094 189.597656 137.109375 189.210938 137.574219 C 188.824219 138.042969 188.425781 138.484375 188.019531 138.90625 C 187.613281 139.328125 187.199219 139.722656 186.777344 140.089844 C 186.355469 140.457031 185.925781 140.800781 185.488281 141.113281 C 185.054688 141.429688 184.613281 141.714844 184.171875 141.972656 C 183.726562 142.226562 183.28125 142.453125 182.835938 142.652344 C 182.390625 142.847656 181.941406 143.011719 181.496094 143.148438 C 181.050781 143.28125 180.605469 143.382812 180.164062 143.457031 C 179.722656 143.527344 179.285156 143.566406 178.851562 143.574219 C 178.417969 143.578125 177.992188 143.554688 177.574219 143.496094 C 177.152344 143.441406 176.742188 143.351562 176.339844 143.230469 C 175.9375 143.109375 175.546875 142.960938 175.164062 142.777344 C 174.785156 142.59375 174.414062 142.378906 174.058594 142.136719 C 173.703125 141.894531 173.359375 141.621094 173.03125 141.316406 C 172.703125 141.015625 172.390625 140.6875 172.09375 140.328125 C 171.796875 139.972656 171.519531 139.589844 171.257812 139.179688 C 170.992188 138.769531 170.75 138.335938 170.523438 137.878906 C 170.296875 137.421875 170.089844 136.945312 169.90625 136.441406 C 169.71875 135.941406 169.550781 135.421875 169.40625 134.882812 C 169.261719 134.34375 169.136719 133.785156 169.03125 133.214844 C 168.925781 132.640625 168.84375 132.054688 168.785156 131.453125 C 168.722656 130.851562 168.683594 130.238281 168.667969 129.617188 C 168.652344 128.992188 168.65625 128.359375 168.683594 127.722656 C 168.710938 127.082031 168.757812 126.4375 168.828125 125.785156 C 168.898438 125.136719 168.992188 124.484375 169.105469 123.832031 C 169.21875 123.179688 169.355469 122.527344 169.507812 121.875 C 169.664062 121.222656 169.839844 120.578125 170.035156 119.933594 C 170.234375 119.292969 170.449219 118.65625 170.683594 118.027344 C 170.917969 117.402344 171.167969 116.785156 171.4375 116.179688 C 171.710938 115.570312 171.996094 114.976562 172.300781 114.398438 C 172.605469 113.820312 172.925781 113.253906 173.261719 112.707031 C 173.59375 112.160156 173.941406 111.632812 174.304688 111.121094 C 174.667969 110.613281 175.042969 110.125 175.429688 109.65625 C 175.816406 109.191406 176.210938 108.746094 176.617188 108.324219 C 177.023438 107.90625 177.4375 107.511719 177.863281 107.140625 C 178.285156 106.773438 178.714844 106.429688 179.148438 106.117188 C 179.585938 105.804688 180.023438 105.515625 180.46875 105.261719 C 180.910156 105.003906 181.355469 104.777344 181.804688 104.582031 C 182.25 104.382812 182.695312 104.21875 183.144531 104.085938 C 183.589844 103.949219 184.035156 103.847656 184.476562 103.777344 C 184.917969 103.707031 185.355469 103.667969 185.789062 103.660156 C 186.21875 103.652344 186.648438 103.675781 187.066406 103.734375 C 187.484375 103.792969 187.898438 103.878906 188.300781 104 Z M 188.300781 104 " fill-opacity="1" fill-rule="nonzero"/></g><path fill="#31579b" d="M 170.035156 119.933594 C 167.875 127.019531 168.335938 133.9375 170.816406 138.445312 C 175.796875 137.867188 180.984375 132.648438 183.574219 125.230469 L 176.769531 122.234375 L 184.929688 119.644531 C 185.789062 113.332031 184.289062 107.695312 181.027344 104.953125 C 176.449219 107.339844 172.199219 112.84375 170.035156 119.933594 Z M 170.035156 119.933594 " fill-opacity="1" fill-rule="nonzero"/><g clip-path="url(#2a6d8c210c)"><path fill="#3f120f" d="M 178.695312 144.140625 C 177.839844 144.140625 177.003906 144.019531 176.1875 143.773438 C 172.714844 142.742188 170.109375 139.640625 168.863281 135.027344 C 167.636719 130.527344 167.855469 125.128906 169.488281 119.769531 C 172.878906 108.652344 181.394531 101.335938 188.46875 103.457031 C 195.539062 105.578125 198.535156 116.347656 195.152344 127.464844 C 192.15625 137.285156 185.160156 144.140625 178.695312 144.140625 Z M 170.582031 120.097656 C 169.019531 125.238281 168.796875 130.425781 169.957031 134.738281 C 171.09375 138.941406 173.429688 141.761719 176.507812 142.691406 C 182.980469 144.632812 190.851562 137.652344 194.054688 127.132812 C 197.261719 116.617188 194.609375 106.476562 188.15625 104.542969 C 181.699219 102.605469 173.789062 109.578125 170.582031 120.097656 Z M 170.582031 120.097656 " fill-opacity="1" fill-rule="nonzero"/></g><g clip-path="url(#fe2408f41e)"><path fill="#f2e9df" d="M 214.925781 104 C 215.328125 104.121094 215.71875 104.273438 216.101562 104.457031 C 216.480469 104.640625 216.851562 104.851562 217.207031 105.097656 C 217.5625 105.339844 217.90625 105.613281 218.234375 105.914062 C 218.5625 106.214844 218.875 106.546875 219.171875 106.902344 C 219.464844 107.261719 219.746094 107.644531 220.007812 108.054688 C 220.269531 108.460938 220.515625 108.894531 220.742188 109.351562 C 220.964844 109.808594 221.171875 110.289062 221.359375 110.789062 C 221.546875 111.289062 221.710938 111.8125 221.859375 112.351562 C 222.003906 112.890625 222.128906 113.445312 222.234375 114.019531 C 222.335938 114.59375 222.417969 115.179688 222.480469 115.78125 C 222.539062 116.382812 222.578125 116.992188 222.597656 117.617188 C 222.613281 118.242188 222.609375 118.871094 222.582031 119.511719 C 222.554688 120.152344 222.503906 120.796875 222.433594 121.445312 C 222.363281 122.097656 222.273438 122.746094 222.160156 123.402344 C 222.046875 124.054688 221.910156 124.707031 221.753906 125.359375 C 221.597656 126.007812 221.425781 126.65625 221.226562 127.300781 C 221.03125 127.941406 220.816406 128.578125 220.582031 129.203125 C 220.347656 129.832031 220.097656 130.449219 219.824219 131.054688 C 219.554688 131.660156 219.265625 132.253906 218.964844 132.835938 C 218.660156 133.414062 218.339844 133.976562 218.003906 134.523438 C 217.667969 135.074219 217.320312 135.601562 216.957031 136.109375 C 216.597656 136.621094 216.222656 137.109375 215.835938 137.574219 C 215.449219 138.042969 215.054688 138.488281 214.648438 138.90625 C 214.238281 139.328125 213.824219 139.722656 213.402344 140.089844 C 212.980469 140.460938 212.550781 140.800781 212.113281 141.117188 C 211.679688 141.429688 211.242188 141.714844 210.796875 141.972656 C 210.355469 142.230469 209.910156 142.457031 209.460938 142.652344 C 209.015625 142.847656 208.566406 143.015625 208.121094 143.148438 C 207.675781 143.28125 207.230469 143.386719 206.789062 143.457031 C 206.347656 143.527344 205.910156 143.566406 205.476562 143.574219 C 205.042969 143.582031 204.617188 143.554688 204.199219 143.5 C 203.777344 143.441406 203.367188 143.351562 202.964844 143.230469 C 202.5625 143.113281 202.171875 142.960938 201.789062 142.777344 C 201.410156 142.59375 201.039062 142.378906 200.683594 142.136719 C 200.328125 141.894531 199.984375 141.621094 199.65625 141.320312 C 199.328125 141.015625 199.015625 140.6875 198.71875 140.328125 C 198.421875 139.972656 198.144531 139.589844 197.882812 139.179688 C 197.621094 138.769531 197.375 138.335938 197.148438 137.878906 C 196.921875 137.421875 196.71875 136.945312 196.53125 136.445312 C 196.34375 135.941406 196.179688 135.421875 196.03125 134.882812 C 195.886719 134.34375 195.761719 133.789062 195.65625 133.214844 C 195.554688 132.640625 195.472656 132.054688 195.410156 131.453125 C 195.351562 130.851562 195.3125 130.238281 195.292969 129.617188 C 195.277344 128.992188 195.28125 128.359375 195.308594 127.722656 C 195.335938 127.082031 195.386719 126.4375 195.457031 125.789062 C 195.527344 125.136719 195.617188 124.484375 195.730469 123.832031 C 195.84375 123.179688 195.980469 122.527344 196.136719 121.875 C 196.289062 121.222656 196.464844 120.578125 196.664062 119.933594 C 196.859375 119.292969 197.074219 118.65625 197.308594 118.03125 C 197.542969 117.402344 197.792969 116.785156 198.066406 116.179688 C 198.335938 115.570312 198.621094 114.980469 198.925781 114.398438 C 199.230469 113.820312 199.550781 113.253906 199.886719 112.707031 C 200.21875 112.160156 200.570312 111.632812 200.929688 111.121094 C 201.292969 110.613281 201.667969 110.125 202.054688 109.65625 C 202.441406 109.191406 202.835938 108.746094 203.242188 108.328125 C 203.648438 107.90625 204.066406 107.511719 204.488281 107.144531 C 204.910156 106.773438 205.339844 106.433594 205.773438 106.117188 C 206.210938 105.804688 206.648438 105.519531 207.09375 105.261719 C 207.535156 105.003906 207.980469 104.777344 208.429688 104.582031 C 208.875 104.386719 209.324219 104.21875 209.769531 104.085938 C 210.214844 103.949219 210.660156 103.847656 211.101562 103.777344 C 211.542969 103.707031 211.980469 103.667969 212.414062 103.660156 C 212.847656 103.652344 213.273438 103.679688 213.691406 103.734375 C 214.113281 103.792969 214.523438 103.878906 214.925781 104 Z M 214.925781 104 " fill-opacity="1" fill-rule="nonzero"/></g><path fill="#31579b" d="M 196.671875 119.933594 C 194.507812 127.019531 194.96875 133.9375 197.449219 138.445312 C 202.421875 137.867188 207.609375 132.648438 210.210938 125.230469 L 203.402344 122.234375 L 211.566406 119.644531 C 212.414062 113.332031 210.90625 107.695312 207.652344 104.953125 C 203.074219 107.339844 198.824219 112.84375 196.671875 119.933594 Z M 196.671875 119.933594 " fill-opacity="1" fill-rule="nonzero"/><g clip-path="url(#e4c358df27)"><path fill="#3f120f" d="M 205.324219 144.140625 C 204.464844 144.140625 203.625 144.019531 202.800781 143.773438 C 199.332031 142.742188 196.722656 139.640625 195.480469 135.027344 C 194.261719 130.527344 194.488281 125.128906 196.117188 119.769531 C 199.503906 108.652344 208.015625 101.335938 215.09375 103.457031 C 222.167969 105.578125 225.160156 116.347656 221.777344 127.464844 C 218.785156 137.285156 211.789062 144.140625 205.324219 144.140625 Z M 197.207031 120.097656 C 195.644531 125.238281 195.421875 130.425781 196.585938 134.738281 C 197.722656 138.941406 200.054688 141.761719 203.132812 142.691406 C 209.601562 144.632812 217.476562 137.652344 220.683594 127.132812 C 223.894531 116.617188 221.234375 106.476562 214.761719 104.542969 C 208.289062 102.605469 200.417969 109.582031 197.207031 120.097656 Z M 197.207031 120.097656 " fill-opacity="1" fill-rule="nonzero"/></g><path fill="#f7b917" d="M 194.304688 139.730469 C 194.304688 140.132812 194.261719 140.535156 194.183594 140.933594 C 194.101562 141.332031 193.984375 141.71875 193.828125 142.09375 C 193.671875 142.46875 193.480469 142.824219 193.253906 143.160156 C 193.027344 143.5 192.765625 143.8125 192.476562 144.097656 C 192.1875 144.386719 191.875 144.640625 191.535156 144.867188 C 191.191406 145.09375 190.835938 145.28125 190.457031 145.4375 C 190.078125 145.59375 189.6875 145.710938 189.285156 145.789062 C 188.886719 145.867188 188.480469 145.910156 188.070312 145.910156 C 187.660156 145.910156 187.257812 145.867188 186.855469 145.789062 C 186.453125 145.710938 186.0625 145.59375 185.6875 145.4375 C 185.308594 145.28125 184.949219 145.09375 184.609375 144.867188 C 184.269531 144.640625 183.953125 144.386719 183.664062 144.097656 C 183.375 143.8125 183.117188 143.5 182.890625 143.160156 C 182.664062 142.824219 182.46875 142.46875 182.3125 142.09375 C 182.15625 141.71875 182.039062 141.332031 181.960938 140.933594 C 181.878906 140.535156 181.839844 140.132812 181.839844 139.730469 C 181.839844 139.324219 181.878906 138.921875 181.960938 138.523438 C 182.039062 138.125 182.15625 137.738281 182.3125 137.363281 C 182.46875 136.988281 182.664062 136.632812 182.890625 136.296875 C 183.117188 135.957031 183.375 135.644531 183.664062 135.359375 C 183.953125 135.070312 184.269531 134.816406 184.609375 134.589844 C 184.949219 134.363281 185.308594 134.175781 185.6875 134.019531 C 186.0625 133.863281 186.453125 133.746094 186.855469 133.667969 C 187.257812 133.589844 187.660156 133.546875 188.070312 133.546875 C 188.480469 133.546875 188.886719 133.589844 189.285156 133.667969 C 189.6875 133.746094 190.078125 133.863281 190.457031 134.019531 C 190.835938 134.175781 191.191406 134.363281 191.535156 134.589844 C 191.875 134.816406 192.1875 135.070312 192.476562 135.359375 C 192.765625 135.644531 193.027344 135.957031 193.253906 136.296875 C 193.480469 136.632812 193.671875 136.988281 193.828125 137.363281 C 193.984375 137.738281 194.101562 138.125 194.183594 138.523438 C 194.261719 138.921875 194.304688 139.324219 194.304688 139.730469 Z M 194.304688 139.730469 " fill-opacity="1" fill-rule="nonzero"/><path fill="#3f120f" d="M 188.070312 146.472656 C 187.625 146.472656 187.183594 146.429688 186.746094 146.34375 C 186.304688 146.257812 185.882812 146.128906 185.46875 145.960938 C 185.054688 145.789062 184.664062 145.582031 184.292969 145.335938 C 183.921875 145.089844 183.578125 144.8125 183.261719 144.496094 C 182.945312 144.183594 182.664062 143.84375 182.417969 143.476562 C 182.167969 143.109375 181.957031 142.71875 181.789062 142.308594 C 181.617188 141.902344 181.488281 141.480469 181.402344 141.042969 C 181.3125 140.609375 181.269531 140.171875 181.269531 139.730469 C 181.269531 139.285156 181.3125 138.847656 181.402344 138.414062 C 181.488281 137.976562 181.617188 137.558594 181.789062 137.148438 C 181.957031 136.738281 182.167969 136.351562 182.417969 135.980469 C 182.664062 135.613281 182.945312 135.273438 183.261719 134.960938 C 183.578125 134.644531 183.921875 134.367188 184.292969 134.121094 C 184.664062 133.875 185.054688 133.667969 185.46875 133.496094 C 185.882812 133.328125 186.304688 133.199219 186.746094 133.113281 C 187.183594 133.027344 187.625 132.984375 188.070312 132.984375 C 188.519531 132.984375 188.960938 133.027344 189.398438 133.113281 C 189.835938 133.199219 190.261719 133.328125 190.675781 133.496094 C 191.085938 133.667969 191.476562 133.875 191.851562 134.121094 C 192.222656 134.367188 192.566406 134.644531 192.878906 134.960938 C 193.195312 135.273438 193.476562 135.613281 193.726562 135.980469 C 193.972656 136.351562 194.183594 136.738281 194.355469 137.148438 C 194.527344 137.558594 194.65625 137.976562 194.742188 138.414062 C 194.828125 138.847656 194.871094 139.285156 194.871094 139.730469 C 194.859375 139.875 194.800781 140 194.691406 140.101562 C 194.582031 140.203125 194.449219 140.253906 194.300781 140.253906 C 194.152344 140.253906 194.023438 140.203125 193.914062 140.101562 C 193.800781 140 193.742188 139.875 193.730469 139.730469 C 193.730469 139.359375 193.695312 138.996094 193.621094 138.632812 C 193.550781 138.273438 193.441406 137.921875 193.300781 137.582031 C 193.15625 137.242188 192.984375 136.917969 192.777344 136.609375 C 192.570312 136.304688 192.335938 136.019531 192.074219 135.761719 C 191.808594 135.5 191.523438 135.265625 191.214844 135.0625 C 190.90625 134.859375 190.578125 134.683594 190.238281 134.542969 C 189.894531 134.402344 189.539062 134.296875 189.175781 134.222656 C 188.8125 134.152344 188.441406 134.117188 188.070312 134.117188 C 187.699219 134.117188 187.332031 134.152344 186.96875 134.222656 C 186.601562 134.296875 186.25 134.402344 185.90625 134.542969 C 185.5625 134.683594 185.234375 134.859375 184.925781 135.0625 C 184.617188 135.265625 184.332031 135.5 184.070312 135.761719 C 183.808594 136.019531 183.570312 136.304688 183.367188 136.609375 C 183.160156 136.917969 182.984375 137.242188 182.84375 137.582031 C 182.699219 137.921875 182.59375 138.273438 182.519531 138.632812 C 182.449219 138.996094 182.410156 139.359375 182.414062 139.730469 C 182.410156 140.097656 182.449219 140.460938 182.519531 140.824219 C 182.59375 141.183594 182.699219 141.535156 182.84375 141.875 C 182.984375 142.214844 183.160156 142.539062 183.367188 142.847656 C 183.570312 143.152344 183.808594 143.4375 184.070312 143.695312 C 184.332031 143.957031 184.617188 144.191406 184.925781 144.394531 C 185.234375 144.597656 185.5625 144.773438 185.90625 144.914062 C 186.25 145.054688 186.601562 145.160156 186.96875 145.234375 C 187.332031 145.304688 187.699219 145.339844 188.070312 145.339844 C 188.21875 145.351562 188.34375 145.414062 188.445312 145.519531 C 188.546875 145.628906 188.597656 145.757812 188.597656 145.90625 C 188.597656 146.054688 188.546875 146.183594 188.445312 146.292969 C 188.34375 146.402344 188.21875 146.460938 188.070312 146.472656 Z M 188.070312 146.472656 " fill-opacity="1" fill-rule="nonzero"/><path fill="#3f120f" d="M 191.25 152.734375 C 189.609375 152.738281 188.011719 152.476562 186.457031 151.945312 C 184.90625 151.414062 183.484375 150.644531 182.195312 149.636719 C 182.042969 149.550781 181.953125 149.421875 181.917969 149.253906 C 181.886719 149.085938 181.921875 148.933594 182.027344 148.800781 C 182.132812 148.664062 182.273438 148.589844 182.445312 148.578125 C 182.617188 148.570312 182.765625 148.625 182.886719 148.746094 C 183.589844 149.289062 184.335938 149.761719 185.128906 150.160156 C 185.921875 150.558594 186.746094 150.875 187.605469 151.113281 C 188.460938 151.351562 189.332031 151.503906 190.21875 151.570312 C 191.109375 151.640625 191.992188 151.621094 192.875 151.515625 C 193.757812 151.410156 194.625 151.21875 195.46875 150.945312 C 196.316406 150.671875 197.125 150.316406 197.902344 149.882812 C 198.675781 149.453125 199.402344 148.949219 200.078125 148.375 C 200.753906 147.800781 201.367188 147.167969 201.917969 146.472656 C 202.007812 146.332031 202.132812 146.246094 202.300781 146.21875 C 202.464844 146.1875 202.613281 146.226562 202.746094 146.328125 C 202.878906 146.429688 202.953125 146.5625 202.964844 146.730469 C 202.980469 146.898438 202.929688 147.039062 202.8125 147.160156 C 202.125 148.03125 201.347656 148.8125 200.484375 149.507812 C 199.617188 150.199219 198.683594 150.789062 197.679688 151.273438 C 196.679688 151.753906 195.636719 152.121094 194.550781 152.367188 C 193.464844 152.613281 192.363281 152.738281 191.25 152.734375 Z M 191.25 152.734375 " fill-opacity="1" fill-rule="nonzero"/><path fill="#dd4826" d="M 192.945312 152.074219 L 196.035156 159.929688 C 196.226562 160.417969 196.503906 160.855469 196.867188 161.234375 C 197.230469 161.613281 197.652344 161.914062 198.132812 162.128906 C 198.613281 162.347656 199.117188 162.46875 199.648438 162.488281 C 200.175781 162.511719 200.6875 162.433594 201.183594 162.253906 C 201.449219 162.160156 201.703125 162.039062 201.941406 161.894531 C 202.179688 161.746094 202.402344 161.574219 202.605469 161.382812 C 202.808594 161.191406 202.992188 160.980469 203.152344 160.75 C 203.3125 160.519531 203.445312 160.273438 203.554688 160.015625 C 203.660156 159.757812 203.742188 159.492188 203.792969 159.21875 C 203.84375 158.941406 203.867188 158.664062 203.863281 158.386719 C 203.855469 158.105469 203.820312 157.832031 203.757812 157.558594 C 203.691406 157.285156 203.601562 157.023438 203.484375 156.769531 L 199.921875 149.226562 C 199.921875 149.226562 196.945312 151.730469 192.945312 152.074219 Z M 192.945312 152.074219 " fill-opacity="1" fill-rule="nonzero"/><g clip-path="url(#3f1813edc3)"><path fill="#3f120f" d="M 199.796875 163.066406 C 199.332031 163.0625 198.875 162.996094 198.433594 162.859375 C 197.988281 162.722656 197.578125 162.523438 197.195312 162.261719 C 196.8125 162 196.476562 161.6875 196.1875 161.328125 C 195.902344 160.964844 195.675781 160.566406 195.507812 160.136719 L 192.417969 152.277344 C 192.382812 152.195312 192.371094 152.109375 192.378906 152.019531 C 192.386719 151.929688 192.414062 151.847656 192.464844 151.773438 C 192.511719 151.695312 192.574219 151.636719 192.648438 151.589844 C 192.726562 151.542969 192.8125 151.515625 192.902344 151.511719 C 196.675781 151.1875 199.527344 148.8125 199.554688 148.785156 C 199.699219 148.667969 199.863281 148.625 200.050781 148.667969 C 200.234375 148.703125 200.367188 148.808594 200.445312 148.980469 L 204.003906 156.535156 C 204.167969 156.882812 204.285156 157.25 204.359375 157.628906 C 204.429688 158.007812 204.453125 158.390625 204.425781 158.777344 C 204.402344 159.164062 204.328125 159.542969 204.207031 159.910156 C 204.085938 160.277344 203.917969 160.621094 203.707031 160.949219 C 203.5 161.273438 203.253906 161.570312 202.96875 161.835938 C 202.683594 162.097656 202.367188 162.324219 202.027344 162.507812 C 201.683594 162.695312 201.324219 162.835938 200.945312 162.929688 C 200.570312 163.027344 200.183594 163.074219 199.796875 163.074219 Z M 193.746094 152.550781 L 196.570312 159.726562 C 196.75 160.148438 197.007812 160.519531 197.335938 160.839844 C 197.667969 161.160156 198.046875 161.402344 198.476562 161.574219 C 198.902344 161.742188 199.347656 161.824219 199.808594 161.820312 C 200.269531 161.816406 200.714844 161.722656 201.136719 161.542969 C 201.5625 161.363281 201.933594 161.109375 202.257812 160.78125 C 202.578125 160.453125 202.828125 160.078125 202.996094 159.652344 C 203.167969 159.226562 203.253906 158.785156 203.246094 158.328125 C 203.242188 157.871094 203.148438 157.433594 202.964844 157.011719 L 199.707031 150.09375 C 197.910156 151.367188 195.921875 152.183594 193.746094 152.550781 Z M 193.746094 152.550781 " fill-opacity="1" fill-rule="nonzero"/></g><path fill="#3f120f" d="M 199.761719 159.167969 C 199.503906 159.171875 199.328125 159.054688 199.226562 158.824219 L 196.210938 151.292969 C 196.140625 151.144531 196.136719 150.996094 196.199219 150.84375 C 196.257812 150.691406 196.367188 150.585938 196.519531 150.523438 C 196.671875 150.464844 196.824219 150.46875 196.972656 150.535156 C 197.121094 150.605469 197.222656 150.71875 197.273438 150.875 L 200.289062 158.386719 C 200.347656 158.53125 200.347656 158.675781 200.285156 158.820312 C 200.222656 158.960938 200.117188 159.0625 199.96875 159.117188 C 199.902344 159.148438 199.832031 159.164062 199.761719 159.167969 Z M 199.761719 159.167969 " fill-opacity="1" fill-rule="nonzero"/><g clip-path="url(#9c9c75c413)"><path fill="#f2e9df" d="M 276.152344 193.035156 L 276.152344 242.269531 C 276.152344 243.023438 276.113281 243.777344 276.039062 244.527344 C 275.964844 245.277344 275.855469 246.019531 275.707031 246.757812 C 275.5625 247.5 275.378906 248.226562 275.160156 248.949219 C 274.941406 249.671875 274.6875 250.378906 274.398438 251.074219 C 274.109375 251.773438 273.785156 252.453125 273.429688 253.117188 C 273.074219 253.78125 272.6875 254.425781 272.265625 255.054688 C 271.847656 255.679688 271.398438 256.285156 270.921875 256.867188 C 270.441406 257.449219 269.933594 258.007812 269.402344 258.539062 C 268.867188 259.070312 268.308594 259.578125 267.726562 260.054688 C 267.140625 260.535156 266.535156 260.980469 265.910156 261.402344 C 265.28125 261.820312 264.636719 262.207031 263.96875 262.5625 C 263.304688 262.917969 262.621094 263.238281 261.925781 263.527344 C 261.226562 263.816406 260.519531 264.070312 259.796875 264.289062 C 259.074219 264.507812 258.34375 264.6875 257.601562 264.835938 C 256.863281 264.984375 256.117188 265.09375 255.363281 265.167969 C 254.613281 265.242188 253.859375 265.277344 253.105469 265.277344 L 120.902344 265.277344 C 120.144531 265.277344 119.394531 265.242188 118.640625 265.167969 C 117.890625 265.09375 117.144531 264.984375 116.40625 264.835938 C 115.664062 264.6875 114.933594 264.507812 114.210938 264.289062 C 113.488281 264.070312 112.777344 263.816406 112.082031 263.527344 C 111.382812 263.238281 110.703125 262.917969 110.039062 262.5625 C 109.371094 262.207031 108.726562 261.820312 108.097656 261.402344 C 107.46875 260.980469 106.863281 260.535156 106.28125 260.054688 C 105.699219 259.578125 105.140625 259.070312 104.605469 258.539062 C 104.070312 258.007812 103.566406 257.449219 103.085938 256.867188 C 102.609375 256.285156 102.160156 255.679688 101.738281 255.054688 C 101.320312 254.425781 100.933594 253.78125 100.578125 253.117188 C 100.222656 252.453125 99.898438 251.773438 99.609375 251.074219 C 99.320312 250.378906 99.066406 249.671875 98.847656 248.949219 C 98.628906 248.226562 98.445312 247.5 98.296875 246.757812 C 98.152344 246.019531 98.039062 245.277344 97.964844 244.527344 C 97.890625 243.777344 97.855469 243.023438 97.855469 242.269531 L 97.855469 193.035156 C 97.855469 192.28125 97.890625 191.53125 97.964844 190.78125 C 98.039062 190.03125 98.152344 189.285156 98.296875 188.546875 C 98.445312 187.808594 98.628906 187.078125 98.847656 186.355469 C 99.066406 185.636719 99.320312 184.925781 99.609375 184.230469 C 99.898438 183.535156 100.222656 182.855469 100.578125 182.191406 C 100.933594 181.523438 101.320312 180.878906 101.738281 180.253906 C 102.160156 179.625 102.609375 179.023438 103.085938 178.441406 C 103.566406 177.855469 104.070312 177.300781 104.605469 176.765625 C 105.140625 176.234375 105.699219 175.726562 106.28125 175.25 C 106.863281 174.773438 107.46875 174.324219 108.097656 173.90625 C 108.726562 173.488281 109.371094 173.101562 110.039062 172.746094 C 110.703125 172.390625 111.382812 172.066406 112.082031 171.78125 C 112.777344 171.492188 113.488281 171.238281 114.210938 171.019531 C 114.933594 170.800781 115.664062 170.617188 116.40625 170.46875 C 117.144531 170.324219 117.890625 170.210938 118.640625 170.140625 C 119.394531 170.066406 120.144531 170.027344 120.902344 170.027344 L 253.105469 170.027344 C 253.859375 170.027344 254.613281 170.066406 255.363281 170.140625 C 256.117188 170.210938 256.863281 170.324219 257.601562 170.46875 C 258.34375 170.617188 259.074219 170.800781 259.796875 171.019531 C 260.519531 171.238281 261.226562 171.492188 261.925781 171.78125 C 262.621094 172.066406 263.304688 172.390625 263.96875 172.746094 C 264.636719 173.101562 265.28125 173.488281 265.910156 173.90625 C 266.535156 174.324219 267.140625 174.773438 267.726562 175.25 C 268.308594 175.726562 268.867188 176.234375 269.402344 176.765625 C 269.933594 177.300781 270.441406 177.855469 270.921875 178.441406 C 271.398438 179.023438 271.847656 179.625 272.265625 180.253906 C 272.6875 180.878906 273.074219 181.523438 273.429688 182.191406 C 273.785156 182.855469 274.109375 183.535156 274.398438 184.230469 C 274.6875 184.925781 274.941406 185.636719 275.160156 186.355469 C 275.378906 187.078125 275.5625 187.808594 275.707031 188.546875 C 275.855469 189.285156 275.964844 190.03125 276.039062 190.78125 C 276.113281 191.53125 276.152344 192.28125 276.152344 193.035156 Z M 276.152344 193.035156 " fill-opacity="1" fill-rule="nonzero"/></g><path fill="#f7b917" d="M 272.253906 193.558594 L 272.253906 241.75 C 272.253906 242.390625 272.222656 243.035156 272.160156 243.675781 C 272.09375 244.3125 272 244.949219 271.875 245.582031 C 271.75 246.210938 271.59375 246.835938 271.40625 247.449219 C 271.21875 248.066406 271.003906 248.671875 270.753906 249.265625 C 270.507812 249.859375 270.234375 250.441406 269.929688 251.007812 C 269.625 251.574219 269.296875 252.125 268.9375 252.660156 C 268.578125 253.195312 268.195312 253.710938 267.789062 254.207031 C 267.378906 254.707031 266.945312 255.183594 266.492188 255.636719 C 266.035156 256.09375 265.558594 256.523438 265.058594 256.929688 C 264.5625 257.339844 264.046875 257.722656 263.511719 258.078125 C 262.972656 258.4375 262.421875 258.765625 261.855469 259.070312 C 261.285156 259.375 260.703125 259.648438 260.109375 259.894531 C 259.511719 260.140625 258.90625 260.355469 258.289062 260.542969 C 257.675781 260.730469 257.050781 260.886719 256.417969 261.011719 C 255.785156 261.136719 255.148438 261.230469 254.507812 261.296875 C 253.867188 261.359375 253.222656 261.390625 252.578125 261.390625 L 121.421875 261.390625 C 120.777344 261.390625 120.136719 261.359375 119.496094 261.296875 C 118.855469 261.230469 118.21875 261.136719 117.585938 261.011719 C 116.953125 260.886719 116.328125 260.730469 115.710938 260.542969 C 115.097656 260.355469 114.488281 260.140625 113.894531 259.894531 C 113.300781 259.648438 112.71875 259.375 112.148438 259.070312 C 111.582031 258.765625 111.027344 258.4375 110.492188 258.078125 C 109.957031 257.722656 109.441406 257.339844 108.941406 256.929688 C 108.445312 256.523438 107.96875 256.09375 107.511719 255.636719 C 107.058594 255.183594 106.625 254.707031 106.214844 254.207031 C 105.808594 253.710938 105.421875 253.195312 105.066406 252.660156 C 104.707031 252.125 104.375 251.574219 104.074219 251.007812 C 103.769531 250.441406 103.496094 249.859375 103.246094 249.265625 C 103 248.671875 102.785156 248.066406 102.597656 247.449219 C 102.410156 246.835938 102.253906 246.210938 102.128906 245.582031 C 102.003906 244.949219 101.90625 244.3125 101.84375 243.675781 C 101.78125 243.035156 101.75 242.390625 101.75 241.75 L 101.75 193.558594 C 101.75 192.917969 101.78125 192.273438 101.84375 191.636719 C 101.90625 190.996094 102.003906 190.359375 102.128906 189.730469 C 102.253906 189.097656 102.410156 188.472656 102.597656 187.859375 C 102.785156 187.242188 103 186.636719 103.246094 186.042969 C 103.496094 185.449219 103.769531 184.867188 104.074219 184.300781 C 104.375 183.734375 104.707031 183.183594 105.066406 182.648438 C 105.421875 182.113281 105.808594 181.597656 106.214844 181.101562 C 106.625 180.601562 107.058594 180.128906 107.511719 179.671875 C 107.96875 179.21875 108.445312 178.785156 108.941406 178.378906 C 109.441406 177.96875 109.957031 177.585938 110.492188 177.230469 C 111.027344 176.871094 111.582031 176.542969 112.148438 176.238281 C 112.71875 175.9375 113.300781 175.660156 113.894531 175.414062 C 114.488281 175.167969 115.097656 174.953125 115.710938 174.765625 C 116.328125 174.578125 116.953125 174.421875 117.585938 174.296875 C 118.21875 174.171875 118.855469 174.078125 119.496094 174.015625 C 120.136719 173.953125 120.777344 173.917969 121.421875 173.917969 L 252.578125 173.917969 C 253.222656 173.917969 253.867188 173.953125 254.507812 174.015625 C 255.148438 174.078125 255.785156 174.171875 256.417969 174.296875 C 257.050781 174.421875 257.675781 174.578125 258.289062 174.765625 C 258.90625 174.953125 259.511719 175.167969 260.109375 175.414062 C 260.703125 175.660156 261.285156 175.9375 261.855469 176.238281 C 262.421875 176.542969 262.972656 176.871094 263.511719 177.230469 C 264.046875 177.585938 264.5625 177.96875 265.058594 178.378906 C 265.558594 178.785156 266.035156 179.21875 266.492188 179.671875 C 266.945312 180.128906 267.378906 180.601562 267.789062 181.101562 C 268.195312 181.597656 268.578125 182.113281 268.9375 182.648438 C 269.296875 183.183594 269.625 183.734375 269.929688 184.300781 C 270.234375 184.867188 270.507812 185.449219 270.753906 186.042969 C 271.003906 186.636719 271.21875 187.242188 271.40625 187.859375 C 271.59375 188.472656 271.75 189.097656 271.875 189.730469 C 272 190.359375 272.09375 190.996094 272.160156 191.636719 C 272.222656 192.273438 272.253906 192.917969 272.253906 193.558594 Z M 272.253906 193.558594 " fill-opacity="1" fill-rule="nonzero"/><path fill="#3f120f" d="M 252.578125 262.0625 L 121.425781 262.0625 C 120.761719 262.0625 120.09375 262.027344 119.433594 261.964844 C 118.769531 261.898438 118.109375 261.796875 117.457031 261.667969 C 116.804688 261.539062 116.15625 261.375 115.519531 261.183594 C 114.882812 260.988281 114.257812 260.765625 113.640625 260.507812 C 113.023438 260.253906 112.421875 259.96875 111.835938 259.65625 C 111.25 259.339844 110.675781 259 110.125 258.628906 C 109.570312 258.257812 109.035156 257.863281 108.519531 257.441406 C 108.003906 257.019531 107.511719 256.570312 107.039062 256.101562 C 106.570312 255.632812 106.121094 255.136719 105.699219 254.625 C 105.277344 254.109375 104.882812 253.574219 104.511719 253.023438 C 104.140625 252.46875 103.796875 251.898438 103.484375 251.3125 C 103.171875 250.726562 102.886719 250.125 102.628906 249.511719 C 102.375 248.894531 102.152344 248.269531 101.957031 247.632812 C 101.765625 246.996094 101.601562 246.351562 101.472656 245.699219 C 101.339844 245.046875 101.242188 244.390625 101.179688 243.726562 C 101.113281 243.066406 101.078125 242.402344 101.078125 241.734375 L 101.078125 193.558594 C 101.078125 192.894531 101.113281 192.230469 101.179688 191.570312 C 101.246094 190.90625 101.34375 190.25 101.472656 189.597656 C 101.605469 188.945312 101.765625 188.300781 101.960938 187.667969 C 102.15625 187.03125 102.378906 186.40625 102.632812 185.789062 C 102.890625 185.175781 103.175781 184.574219 103.488281 183.988281 C 103.804688 183.402344 104.144531 182.832031 104.515625 182.28125 C 104.886719 181.726562 105.28125 181.195312 105.703125 180.679688 C 106.128906 180.164062 106.574219 179.671875 107.046875 179.203125 C 107.515625 178.734375 108.011719 178.285156 108.523438 177.863281 C 109.039062 177.441406 109.574219 177.046875 110.128906 176.675781 C 110.679688 176.308594 111.253906 175.964844 111.839844 175.652344 C 112.425781 175.339844 113.027344 175.054688 113.644531 174.800781 C 114.257812 174.542969 114.886719 174.320312 115.523438 174.125 C 116.160156 173.933594 116.804688 173.769531 117.457031 173.640625 C 118.113281 173.511719 118.769531 173.414062 119.433594 173.347656 C 120.097656 173.28125 120.761719 173.246094 121.425781 173.246094 L 252.578125 173.246094 C 253.246094 173.246094 253.910156 173.28125 254.574219 173.347656 C 255.238281 173.410156 255.894531 173.511719 256.546875 173.640625 C 257.203125 173.769531 257.847656 173.933594 258.484375 174.125 C 259.121094 174.320312 259.75 174.542969 260.363281 174.796875 C 260.980469 175.054688 261.582031 175.335938 262.167969 175.652344 C 262.757812 175.964844 263.328125 176.304688 263.878906 176.675781 C 264.433594 177.046875 264.96875 177.441406 265.484375 177.863281 C 266 178.285156 266.492188 178.730469 266.964844 179.203125 C 267.433594 179.671875 267.882812 180.164062 268.304688 180.679688 C 268.726562 181.191406 269.125 181.726562 269.492188 182.277344 C 269.863281 182.832031 270.207031 183.402344 270.519531 183.988281 C 270.835938 184.574219 271.121094 185.175781 271.375 185.789062 C 271.628906 186.402344 271.855469 187.027344 272.050781 187.664062 C 272.242188 188.300781 272.40625 188.945312 272.535156 189.597656 C 272.667969 190.25 272.765625 190.90625 272.832031 191.570312 C 272.898438 192.230469 272.929688 192.894531 272.929688 193.558594 L 272.929688 241.734375 C 272.929688 242.402344 272.898438 243.066406 272.832031 243.726562 C 272.765625 244.390625 272.667969 245.046875 272.539062 245.699219 C 272.40625 246.351562 272.246094 246.996094 272.050781 247.632812 C 271.859375 248.269531 271.632812 248.894531 271.378906 249.511719 C 271.125 250.125 270.839844 250.726562 270.523438 251.3125 C 270.210938 251.898438 269.867188 252.46875 269.5 253.023438 C 269.128906 253.578125 268.730469 254.109375 268.308594 254.625 C 267.886719 255.140625 267.4375 255.632812 266.96875 256.101562 C 266.496094 256.574219 266.003906 257.019531 265.488281 257.441406 C 264.972656 257.863281 264.4375 258.261719 263.882812 258.628906 C 263.332031 259 262.761719 259.34375 262.171875 259.65625 C 261.585938 259.96875 260.984375 260.253906 260.367188 260.511719 C 259.75 260.765625 259.125 260.988281 258.488281 261.183594 C 257.847656 261.375 257.203125 261.539062 256.550781 261.667969 C 255.894531 261.800781 255.238281 261.898438 254.574219 261.964844 C 253.910156 262.027344 253.246094 262.0625 252.578125 262.0625 Z M 121.425781 174.59375 C 120.804688 174.59375 120.183594 174.625 119.566406 174.6875 C 118.945312 174.746094 118.332031 174.839844 117.722656 174.960938 C 117.113281 175.082031 116.507812 175.234375 115.914062 175.414062 C 115.320312 175.59375 114.734375 175.804688 114.160156 176.042969 C 113.585938 176.28125 113.023438 176.546875 112.476562 176.839844 C 111.925781 177.132812 111.394531 177.449219 110.875 177.796875 C 110.359375 178.140625 109.859375 178.511719 109.378906 178.90625 C 108.898438 179.296875 108.4375 179.714844 108 180.15625 C 107.558594 180.59375 107.140625 181.054688 106.746094 181.53125 C 106.351562 182.011719 105.980469 182.511719 105.636719 183.027344 C 105.289062 183.542969 104.972656 184.074219 104.675781 184.625 C 104.382812 185.171875 104.117188 185.730469 103.878906 186.304688 C 103.640625 186.878906 103.429688 187.460938 103.25 188.054688 C 103.070312 188.652344 102.917969 189.253906 102.796875 189.863281 C 102.675781 190.46875 102.582031 191.082031 102.519531 191.703125 C 102.460938 192.320312 102.429688 192.9375 102.429688 193.558594 L 102.429688 241.734375 C 102.429688 242.355469 102.460938 242.976562 102.519531 243.59375 C 102.582031 244.214844 102.671875 244.828125 102.792969 245.4375 C 102.917969 246.046875 103.066406 246.648438 103.25 247.242188 C 103.429688 247.835938 103.636719 248.421875 103.875 248.996094 C 104.113281 249.570312 104.378906 250.128906 104.675781 250.675781 C 104.96875 251.226562 105.285156 251.757812 105.632812 252.273438 C 105.976562 252.789062 106.347656 253.289062 106.742188 253.769531 C 107.136719 254.25 107.554688 254.710938 107.996094 255.148438 C 108.433594 255.589844 108.894531 256.003906 109.375 256.398438 C 109.855469 256.792969 110.355469 257.164062 110.871094 257.507812 C 111.390625 257.855469 111.921875 258.175781 112.472656 258.46875 C 113.019531 258.761719 113.582031 259.027344 114.15625 259.265625 C 114.730469 259.503906 115.316406 259.710938 115.910156 259.894531 C 116.507812 260.074219 117.109375 260.226562 117.71875 260.347656 C 118.332031 260.46875 118.945312 260.5625 119.5625 260.621094 C 120.183594 260.683594 120.804688 260.714844 121.425781 260.714844 L 252.578125 260.714844 C 253.203125 260.714844 253.824219 260.683594 254.441406 260.625 C 255.0625 260.5625 255.675781 260.46875 256.285156 260.347656 C 256.898438 260.226562 257.5 260.074219 258.09375 259.894531 C 258.691406 259.714844 259.277344 259.503906 259.851562 259.265625 C 260.425781 259.027344 260.988281 258.761719 261.535156 258.46875 C 262.085938 258.175781 262.617188 257.855469 263.136719 257.511719 C 263.652344 257.164062 264.152344 256.796875 264.632812 256.402344 C 265.113281 256.007812 265.574219 255.589844 266.015625 255.152344 C 266.453125 254.710938 266.871094 254.25 267.265625 253.769531 C 267.660156 253.289062 268.03125 252.792969 268.378906 252.273438 C 268.722656 251.757812 269.042969 251.226562 269.335938 250.679688 C 269.628906 250.128906 269.894531 249.570312 270.132812 248.996094 C 270.371094 248.421875 270.582031 247.835938 270.761719 247.242188 C 270.941406 246.648438 271.09375 246.046875 271.214844 245.4375 C 271.335938 244.828125 271.429688 244.214844 271.488281 243.59375 C 271.550781 242.976562 271.582031 242.355469 271.582031 241.734375 L 271.582031 193.558594 C 271.582031 192.9375 271.550781 192.320312 271.488281 191.703125 C 271.425781 191.082031 271.335938 190.46875 271.214844 189.859375 C 271.089844 189.253906 270.941406 188.652344 270.757812 188.054688 C 270.578125 187.460938 270.367188 186.878906 270.128906 186.304688 C 269.890625 185.730469 269.625 185.171875 269.332031 184.621094 C 269.039062 184.074219 268.71875 183.542969 268.371094 183.027344 C 268.027344 182.511719 267.65625 182.011719 267.261719 181.53125 C 266.867188 181.054688 266.449219 180.59375 266.007812 180.152344 C 265.570312 179.714844 265.109375 179.296875 264.628906 178.90625 C 264.148438 178.511719 263.648438 178.140625 263.132812 177.796875 C 262.613281 177.449219 262.082031 177.132812 261.53125 176.839844 C 260.984375 176.546875 260.421875 176.28125 259.847656 176.042969 C 259.273438 175.804688 258.6875 175.59375 258.09375 175.414062 C 257.496094 175.234375 256.894531 175.082031 256.285156 174.960938 C 255.675781 174.839844 255.0625 174.746094 254.441406 174.6875 C 253.824219 174.625 253.203125 174.59375 252.578125 174.59375 Z M 121.425781 174.59375 " fill-opacity="1" fill-rule="nonzero"/><path fill="#dd4826" d="M 122.210938 179.753906 L 251.792969 179.753906 C 252.753906 179.753906 253.703125 179.847656 254.644531 180.035156 C 255.585938 180.222656 256.5 180.496094 257.386719 180.863281 C 258.273438 181.230469 259.117188 181.679688 259.914062 182.214844 C 260.710938 182.746094 261.449219 183.351562 262.128906 184.027344 C 262.808594 184.703125 263.414062 185.441406 263.945312 186.238281 C 264.480469 187.035156 264.929688 187.875 265.296875 188.761719 C 265.664062 189.644531 265.941406 190.558594 266.128906 191.5 C 266.316406 192.4375 266.410156 193.386719 266.410156 194.34375 L 266.410156 240.960938 C 266.410156 241.917969 266.316406 242.867188 266.128906 243.808594 C 265.941406 244.746094 265.664062 245.660156 265.296875 246.546875 C 264.929688 247.429688 264.480469 248.269531 263.945312 249.066406 C 263.414062 249.863281 262.808594 250.601562 262.128906 251.277344 C 261.449219 251.957031 260.710938 252.5625 259.914062 253.09375 C 259.117188 253.625 258.273438 254.074219 257.386719 254.441406 C 256.5 254.808594 255.585938 255.085938 254.644531 255.273438 C 253.703125 255.457031 252.753906 255.550781 251.792969 255.550781 L 122.210938 255.550781 C 121.253906 255.550781 120.300781 255.457031 119.359375 255.273438 C 118.421875 255.085938 117.507812 254.808594 116.621094 254.441406 C 115.734375 254.074219 114.890625 253.625 114.09375 253.09375 C 113.296875 252.5625 112.558594 251.957031 111.878906 251.277344 C 111.199219 250.601562 110.59375 249.863281 110.0625 249.066406 C 109.527344 248.269531 109.078125 247.429688 108.710938 246.546875 C 108.34375 245.660156 108.066406 244.746094 107.878906 243.808594 C 107.691406 242.867188 107.597656 241.917969 107.597656 240.960938 L 107.597656 194.34375 C 107.597656 193.386719 107.691406 192.4375 107.878906 191.5 C 108.066406 190.558594 108.34375 189.644531 108.710938 188.761719 C 109.078125 187.875 109.527344 187.035156 110.0625 186.238281 C 110.59375 185.441406 111.199219 184.703125 111.878906 184.027344 C 112.558594 183.351562 113.296875 182.746094 114.09375 182.214844 C 114.890625 181.679688 115.734375 181.230469 116.621094 180.863281 C 117.507812 180.496094 118.421875 180.222656 119.359375 180.035156 C 120.300781 179.847656 121.253906 179.753906 122.210938 179.753906 Z M 122.210938 179.753906 " fill-opacity="1" fill-rule="nonzero"/><path fill="#3f120f" d="M 251.792969 256.210938 L 122.210938 256.210938 C 121.210938 256.210938 120.214844 256.113281 119.234375 255.917969 C 118.25 255.71875 117.292969 255.429688 116.367188 255.046875 C 115.441406 254.664062 114.558594 254.195312 113.726562 253.636719 C 112.890625 253.082031 112.121094 252.449219 111.410156 251.742188 C 110.703125 251.035156 110.066406 250.261719 109.507812 249.429688 C 108.953125 248.597656 108.480469 247.71875 108.09375 246.796875 C 107.710938 245.871094 107.417969 244.917969 107.222656 243.9375 C 107.023438 242.953125 106.925781 241.960938 106.921875 240.960938 L 106.921875 194.34375 C 106.925781 193.34375 107.023438 192.351562 107.21875 191.367188 C 107.417969 190.386719 107.707031 189.429688 108.089844 188.507812 C 108.476562 187.582031 108.945312 186.703125 109.503906 185.867188 C 110.0625 185.035156 110.695312 184.265625 111.40625 183.554688 C 112.117188 182.847656 112.886719 182.214844 113.722656 181.660156 C 114.554688 181.101562 115.4375 180.632812 116.363281 180.246094 C 117.292969 179.863281 118.246094 179.574219 119.230469 179.375 C 120.214844 179.179688 121.207031 179.082031 122.210938 179.082031 L 251.792969 179.082031 C 252.796875 179.082031 253.792969 179.179688 254.777344 179.375 C 255.761719 179.574219 256.714844 179.863281 257.644531 180.246094 C 258.570312 180.632812 259.449219 181.101562 260.285156 181.660156 C 261.117188 182.214844 261.890625 182.847656 262.601562 183.554688 C 263.308594 184.265625 263.945312 185.035156 264.5 185.867188 C 265.058594 186.703125 265.53125 187.582031 265.914062 188.507812 C 266.300781 189.429688 266.589844 190.386719 266.785156 191.367188 C 266.984375 192.351562 267.082031 193.34375 267.082031 194.34375 L 267.082031 240.960938 C 267.082031 241.960938 266.980469 242.953125 266.785156 243.9375 C 266.585938 244.917969 266.296875 245.871094 265.910156 246.796875 C 265.527344 247.71875 265.054688 248.597656 264.496094 249.429688 C 263.9375 250.261719 263.304688 251.035156 262.597656 251.742188 C 261.886719 252.449219 261.113281 253.082031 260.28125 253.636719 C 259.445312 254.195312 258.566406 254.664062 257.640625 255.046875 C 256.714844 255.429688 255.757812 255.71875 254.773438 255.917969 C 253.789062 256.113281 252.796875 256.210938 251.792969 256.210938 Z M 122.210938 180.425781 C 121.296875 180.429688 120.390625 180.519531 119.492188 180.699219 C 118.597656 180.875 117.726562 181.140625 116.878906 181.492188 C 116.035156 181.839844 115.230469 182.269531 114.472656 182.777344 C 113.710938 183.285156 113.007812 183.863281 112.359375 184.507812 C 111.714844 185.15625 111.136719 185.855469 110.625 186.617188 C 110.117188 187.375 109.6875 188.175781 109.335938 189.019531 C 108.988281 189.863281 108.722656 190.734375 108.542969 191.628906 C 108.363281 192.527344 108.273438 193.429688 108.273438 194.34375 L 108.273438 240.960938 C 108.273438 241.875 108.363281 242.777344 108.542969 243.671875 C 108.726562 244.570312 108.992188 245.4375 109.339844 246.28125 C 109.691406 247.125 110.121094 247.925781 110.632812 248.683594 C 111.140625 249.441406 111.71875 250.144531 112.363281 250.789062 C 113.011719 251.433594 113.714844 252.011719 114.476562 252.515625 C 115.234375 253.023438 116.039062 253.453125 116.882812 253.800781 C 117.726562 254.152344 118.597656 254.417969 119.496094 254.59375 C 120.390625 254.773438 121.296875 254.863281 122.210938 254.867188 L 251.792969 254.867188 C 252.710938 254.863281 253.617188 254.773438 254.511719 254.59375 C 255.410156 254.417969 256.28125 254.152344 257.128906 253.800781 C 257.972656 253.453125 258.773438 253.023438 259.535156 252.515625 C 260.296875 252.007812 261 251.429688 261.648438 250.785156 C 262.292969 250.140625 262.871094 249.4375 263.382812 248.675781 C 263.890625 247.917969 264.320312 247.117188 264.671875 246.273438 C 265.019531 245.429688 265.285156 244.558594 265.464844 243.664062 C 265.644531 242.765625 265.734375 241.863281 265.734375 240.949219 L 265.734375 194.34375 C 265.734375 193.429688 265.644531 192.527344 265.464844 191.628906 C 265.285156 190.734375 265.019531 189.863281 264.667969 189.019531 C 264.320312 188.175781 263.890625 187.375 263.378906 186.617188 C 262.871094 185.855469 262.292969 185.15625 261.648438 184.507812 C 261 183.863281 260.296875 183.285156 259.535156 182.777344 C 258.773438 182.269531 257.972656 181.839844 257.125 181.492188 C 256.28125 181.140625 255.410156 180.875 254.511719 180.699219 C 253.617188 180.519531 252.710938 180.429688 251.792969 180.425781 Z M 122.210938 180.425781 " fill-opacity="1" fill-rule="nonzero"/><g fill="#f2e9df" fill-opacity="1"><g transform="translate(127.856787, 213.281456)"><g><path d="M 14.9375 -8.75 C 15.082031 -8.75 15.21875 -8.785156 15.34375 -8.859375 L 15.34375 -10.859375 C 16.332031 -11.523438 17.722656 -12.070312 19.515625 -12.5 C 21.316406 -12.925781 23.066406 -13.140625 24.765625 -13.140625 C 25.535156 -12.347656 26.179688 -11.164062 26.703125 -9.59375 C 27.222656 -8.019531 27.5 -6.59375 27.53125 -5.3125 C 27.238281 -4.726562 26.742188 -4.097656 26.046875 -3.421875 C 25.347656 -2.753906 24.507812 -2.132812 23.53125 -1.5625 C 21.101562 -0.125 18.3125 0.59375 15.15625 0.59375 C 10.644531 0.59375 7.09375 -0.71875 4.5 -3.34375 C 1.820312 -5.988281 0.484375 -9.660156 0.484375 -14.359375 C 0.484375 -19.054688 1.945312 -22.742188 4.875 -25.421875 C 6.164062 -26.617188 7.664062 -27.519531 9.375 -28.125 C 11.09375 -28.738281 12.894531 -29.046875 14.78125 -29.046875 C 18.476562 -29.046875 21.503906 -28.148438 23.859375 -26.359375 C 26.222656 -24.578125 27.40625 -22.375 27.40625 -19.75 C 27.40625 -17.769531 26.796875 -16.304688 25.578125 -15.359375 C 24.359375 -14.421875 22.707031 -13.953125 20.625 -13.953125 C 19.488281 -13.953125 18.34375 -14.234375 17.1875 -14.796875 C 16.03125 -15.359375 15.34375 -15.890625 15.125 -16.390625 C 15.125 -17.585938 15.144531 -18.53125 15.1875 -19.21875 C 15.15625 -19.238281 15.101562 -19.25 15.03125 -19.25 L 14.875 -19.25 C 14.65625 -19.25 14.484375 -19.1875 14.359375 -19.0625 C 14.234375 -18.9375 14.125 -18.675781 14.03125 -18.28125 C 13.9375 -17.882812 13.890625 -16.804688 13.890625 -15.046875 C 13.890625 -10.847656 14.238281 -8.75 14.9375 -8.75 Z M 14.9375 -8.75 "/></g></g></g><g fill="#f2e9df" fill-opacity="1"><g transform="translate(155.710858, 213.281456)"><g><path d="M 15.796875 -15.15625 C 15.796875 -16.625 15.726562 -17.628906 15.59375 -18.171875 C 15.46875 -18.722656 15.226562 -19 14.875 -19 C 14.65625 -19 14.457031 -18.925781 14.28125 -18.78125 C 14.3125 -18.519531 14.351562 -18.171875 14.40625 -17.734375 C 14.46875 -17.296875 14.5 -16.359375 14.5 -14.921875 L 14.5 -13.484375 C 14.5 -12.492188 14.476562 -11.769531 14.4375 -11.3125 C 14.394531 -10.863281 14.359375 -10.476562 14.328125 -10.15625 C 14.304688 -9.976562 14.289062 -9.800781 14.28125 -9.625 C 14.457031 -9.476562 14.65625 -9.40625 14.875 -9.40625 C 15.226562 -9.40625 15.46875 -9.675781 15.59375 -10.21875 C 15.726562 -10.769531 15.796875 -11.78125 15.796875 -13.25 Z M 14.921875 0.703125 C 12.316406 0.703125 9.925781 0.164062 7.75 -0.90625 C 5.570312 -1.988281 3.816406 -3.640625 2.484375 -5.859375 C 1.148438 -8.078125 0.484375 -10.847656 0.484375 -14.171875 C 0.484375 -18.992188 1.929688 -22.757812 4.828125 -25.46875 C 7.410156 -27.851562 10.726562 -29.046875 14.78125 -29.046875 C 19.195312 -29.046875 22.6875 -27.679688 25.25 -24.953125 C 27.820312 -22.222656 29.109375 -18.628906 29.109375 -14.171875 C 29.109375 -9.222656 27.734375 -5.441406 24.984375 -2.828125 C 22.472656 -0.472656 19.117188 0.703125 14.921875 0.703125 Z M 14.921875 0.703125 "/></g></g></g><g fill="#f2e9df" fill-opacity="1"><g transform="translate(185.300322, 213.281456)"><g><path d="M 12.984375 -15.625 C 13.046875 -15.582031 13.210938 -15.5625 13.484375 -15.5625 C 13.765625 -15.5625 13.976562 -15.671875 14.125 -15.890625 C 14.269531 -16.109375 14.34375 -16.46875 14.34375 -16.96875 L 14.34375 -17.75 C 14.34375 -18.28125 14.28125 -18.65625 14.15625 -18.875 C 14.03125 -19.101562 13.828125 -19.21875 13.546875 -19.21875 C 13.265625 -19.21875 13.070312 -19.191406 12.96875 -19.140625 C 12.976562 -19.066406 12.984375 -18.941406 12.984375 -18.765625 Z M 24.328125 -10.609375 L 28.125 -6.71875 C 27.863281 -4.4375 27.140625 -2.679688 25.953125 -1.453125 C 24.773438 -0.222656 23.148438 0.390625 21.078125 0.390625 C 19.503906 0.390625 18.140625 0.0195312 16.984375 -0.71875 C 15.503906 -1.65625 14.398438 -3.148438 13.671875 -5.203125 L 12.875 -7.359375 C 12.257812 -7.378906 11.484375 -7.460938 10.546875 -7.609375 C 10.429688 -7.484375 10.375 -7.320312 10.375 -7.125 C 10.375 -6.726562 10.96875 -6.492188 12.15625 -6.421875 L 13.40625 -3.25 L 13.40625 -1.390625 C 11.71875 -0.203125 9.554688 0.390625 6.921875 0.390625 C 5.035156 0.390625 3.523438 0.00390625 2.390625 -0.765625 C 1.265625 -1.546875 0.703125 -2.675781 0.703125 -4.15625 L 0.703125 -25.03125 C 0.703125 -25.675781 1.296875 -26.300781 2.484375 -26.90625 C 3.671875 -27.507812 5.222656 -28 7.140625 -28.375 C 9.054688 -28.75 10.972656 -28.9375 12.890625 -28.9375 C 17.285156 -28.9375 20.722656 -28.035156 23.203125 -26.234375 C 25.804688 -24.347656 27.109375 -21.691406 27.109375 -18.265625 C 27.109375 -16.296875 26.554688 -14.613281 25.453125 -13.21875 C 24.347656 -11.820312 22.953125 -10.851562 21.265625 -10.3125 C 21.265625 -9.84375 21.546875 -9.609375 22.109375 -9.609375 C 22.679688 -9.609375 23.421875 -9.941406 24.328125 -10.609375 Z M 24.328125 -10.609375 "/></g></g></g><g fill="#f2e9df" fill-opacity="1"><g transform="translate(212.978656, 213.281456)"><g><path d="M 0.703125 -4.0625 L 0.703125 -26.078125 C 0.703125 -26.835938 1.3125 -27.46875 2.53125 -27.96875 C 3.757812 -28.476562 5.203125 -28.734375 6.859375 -28.734375 C 7.796875 -28.734375 8.675781 -28.617188 9.5 -28.390625 C 10.332031 -28.171875 10.96875 -27.882812 11.40625 -27.53125 C 12.007812 -26.769531 12.554688 -25.992188 13.046875 -25.203125 C 13.546875 -24.410156 14.664062 -22.566406 16.40625 -19.671875 C 16.570312 -19.671875 16.71875 -19.71875 16.84375 -19.8125 C 16.976562 -19.914062 17.046875 -20.070312 17.046875 -20.28125 C 17.046875 -20.5 16.863281 -20.914062 16.5 -21.53125 L 14.125 -25.625 L 14.125 -26.828125 C 14.875 -27.441406 15.78125 -27.914062 16.84375 -28.25 C 17.914062 -28.59375 19.023438 -28.765625 20.171875 -28.765625 C 22.035156 -28.765625 23.535156 -28.425781 24.671875 -27.75 C 26.003906 -26.945312 26.671875 -25.6875 26.671875 -23.96875 L 26.671875 -3.171875 C 26.671875 -1.910156 26.070312 -0.992188 24.875 -0.421875 C 23.84375 0.0976562 22.472656 0.359375 20.765625 0.359375 C 19.816406 0.359375 18.890625 0.253906 17.984375 0.046875 C 17.085938 -0.160156 16.378906 -0.425781 15.859375 -0.75 C 14.816406 -2.082031 13.785156 -3.578125 12.765625 -5.234375 L 10.53125 -8.96875 C 10.101562 -8.90625 9.890625 -8.675781 9.890625 -8.28125 C 9.890625 -8.03125 10.101562 -7.554688 10.53125 -6.859375 L 13.265625 -2.421875 L 13.265625 -1.25 C 11.566406 -0.15625 9.648438 0.390625 7.515625 0.390625 C 5.390625 0.390625 3.722656 0.00390625 2.515625 -0.765625 C 1.304688 -1.546875 0.703125 -2.644531 0.703125 -4.0625 Z M 0.703125 -4.0625 "/></g></g></g><g fill="#f2e9df" fill-opacity="1"><g transform="translate(127.856787, 244.031454)"><g><path d="M 14.9375 -8.75 C 15.082031 -8.75 15.21875 -8.785156 15.34375 -8.859375 L 15.34375 -10.859375 C 16.332031 -11.523438 17.722656 -12.070312 19.515625 -12.5 C 21.316406 -12.925781 23.066406 -13.140625 24.765625 -13.140625 C 25.535156 -12.347656 26.179688 -11.164062 26.703125 -9.59375 C 27.222656 -8.019531 27.5 -6.59375 27.53125 -5.3125 C 27.238281 -4.726562 26.742188 -4.097656 26.046875 -3.421875 C 25.347656 -2.753906 24.507812 -2.132812 23.53125 -1.5625 C 21.101562 -0.125 18.3125 0.59375 15.15625 0.59375 C 10.644531 0.59375 7.09375 -0.71875 4.5 -3.34375 C 1.820312 -5.988281 0.484375 -9.660156 0.484375 -14.359375 C 0.484375 -19.054688 1.945312 -22.742188 4.875 -25.421875 C 6.164062 -26.617188 7.664062 -27.519531 9.375 -28.125 C 11.09375 -28.738281 12.894531 -29.046875 14.78125 -29.046875 C 18.476562 -29.046875 21.503906 -28.148438 23.859375 -26.359375 C 26.222656 -24.578125 27.40625 -22.375 27.40625 -19.75 C 27.40625 -17.769531 26.796875 -16.304688 25.578125 -15.359375 C 24.359375 -14.421875 22.707031 -13.953125 20.625 -13.953125 C 19.488281 -13.953125 18.34375 -14.234375 17.1875 -14.796875 C 16.03125 -15.359375 15.34375 -15.890625 15.125 -16.390625 C 15.125 -17.585938 15.144531 -18.53125 15.1875 -19.21875 C 15.15625 -19.238281 15.101562 -19.25 15.03125 -19.25 L 14.875 -19.25 C 14.65625 -19.25 14.484375 -19.1875 14.359375 -19.0625 C 14.234375 -18.9375 14.125 -18.675781 14.03125 -18.28125 C 13.9375 -17.882812 13.890625 -16.804688 13.890625 -15.046875 C 13.890625 -10.847656 14.238281 -8.75 14.9375 -8.75 Z M 14.9375 -8.75 "/></g></g></g><g fill="#f2e9df" fill-opacity="1"><g transform="translate(155.710858, 244.031454)"><g><path d="M 15.796875 -15.15625 C 15.796875 -16.625 15.726562 -17.628906 15.59375 -18.171875 C 15.46875 -18.722656 15.226562 -19 14.875 -19 C 14.65625 -19 14.457031 -18.925781 14.28125 -18.78125 C 14.3125 -18.519531 14.351562 -18.171875 14.40625 -17.734375 C 14.46875 -17.296875 14.5 -16.359375 14.5 -14.921875 L 14.5 -13.484375 C 14.5 -12.492188 14.476562 -11.769531 14.4375 -11.3125 C 14.394531 -10.863281 14.359375 -10.476562 14.328125 -10.15625 C 14.304688 -9.976562 14.289062 -9.800781 14.28125 -9.625 C 14.457031 -9.476562 14.65625 -9.40625 14.875 -9.40625 C 15.226562 -9.40625 15.46875 -9.675781 15.59375 -10.21875 C 15.726562 -10.769531 15.796875 -11.78125 15.796875 -13.25 Z M 14.921875 0.703125 C 12.316406 0.703125 9.925781 0.164062 7.75 -0.90625 C 5.570312 -1.988281 3.816406 -3.640625 2.484375 -5.859375 C 1.148438 -8.078125 0.484375 -10.847656 0.484375 -14.171875 C 0.484375 -18.992188 1.929688 -22.757812 4.828125 -25.46875 C 7.410156 -27.851562 10.726562 -29.046875 14.78125 -29.046875 C 19.195312 -29.046875 22.6875 -27.679688 25.25 -24.953125 C 27.820312 -22.222656 29.109375 -18.628906 29.109375 -14.171875 C 29.109375 -9.222656 27.734375 -5.441406 24.984375 -2.828125 C 22.472656 -0.472656 19.117188 0.703125 14.921875 0.703125 Z M 14.921875 0.703125 "/></g></g></g><g fill="#f2e9df" fill-opacity="1"><g transform="translate(185.300322, 244.031454)"><g><path d="M 12.984375 -15.625 C 13.046875 -15.582031 13.210938 -15.5625 13.484375 -15.5625 C 13.765625 -15.5625 13.976562 -15.671875 14.125 -15.890625 C 14.269531 -16.109375 14.34375 -16.46875 14.34375 -16.96875 L 14.34375 -17.75 C 14.34375 -18.28125 14.28125 -18.65625 14.15625 -18.875 C 14.03125 -19.101562 13.828125 -19.21875 13.546875 -19.21875 C 13.265625 -19.21875 13.070312 -19.191406 12.96875 -19.140625 C 12.976562 -19.066406 12.984375 -18.941406 12.984375 -18.765625 Z M 24.328125 -10.609375 L 28.125 -6.71875 C 27.863281 -4.4375 27.140625 -2.679688 25.953125 -1.453125 C 24.773438 -0.222656 23.148438 0.390625 21.078125 0.390625 C 19.503906 0.390625 18.140625 0.0195312 16.984375 -0.71875 C 15.503906 -1.65625 14.398438 -3.148438 13.671875 -5.203125 L 12.875 -7.359375 C 12.257812 -7.378906 11.484375 -7.460938 10.546875 -7.609375 C 10.429688 -7.484375 10.375 -7.320312 10.375 -7.125 C 10.375 -6.726562 10.96875 -6.492188 12.15625 -6.421875 L 13.40625 -3.25 L 13.40625 -1.390625 C 11.71875 -0.203125 9.554688 0.390625 6.921875 0.390625 C 5.035156 0.390625 3.523438 0.00390625 2.390625 -0.765625 C 1.265625 -1.546875 0.703125 -2.675781 0.703125 -4.15625 L 0.703125 -25.03125 C 0.703125 -25.675781 1.296875 -26.300781 2.484375 -26.90625 C 3.671875 -27.507812 5.222656 -28 7.140625 -28.375 C 9.054688 -28.75 10.972656 -28.9375 12.890625 -28.9375 C 17.285156 -28.9375 20.722656 -28.035156 23.203125 -26.234375 C 25.804688 -24.347656 27.109375 -21.691406 27.109375 -18.265625 C 27.109375 -16.296875 26.554688 -14.613281 25.453125 -13.21875 C 24.347656 -11.820312 22.953125 -10.851562 21.265625 -10.3125 C 21.265625 -9.84375 21.546875 -9.609375 22.109375 -9.609375 C 22.679688 -9.609375 23.421875 -9.941406 24.328125 -10.609375 Z M 24.328125 -10.609375 "/></g></g></g><g fill="#f2e9df" fill-opacity="1"><g transform="translate(212.978656, 244.031454)"><g><path d="M 0.703125 -4.0625 L 0.703125 -26.078125 C 0.703125 -26.835938 1.3125 -27.46875 2.53125 -27.96875 C 3.757812 -28.476562 5.203125 -28.734375 6.859375 -28.734375 C 7.796875 -28.734375 8.675781 -28.617188 9.5 -28.390625 C 10.332031 -28.171875 10.96875 -27.882812 11.40625 -27.53125 C 12.007812 -26.769531 12.554688 -25.992188 13.046875 -25.203125 C 13.546875 -24.410156 14.664062 -22.566406 16.40625 -19.671875 C 16.570312 -19.671875 16.71875 -19.71875 16.84375 -19.8125 C 16.976562 -19.914062 17.046875 -20.070312 17.046875 -20.28125 C 17.046875 -20.5 16.863281 -20.914062 16.5 -21.53125 L 14.125 -25.625 L 14.125 -26.828125 C 14.875 -27.441406 15.78125 -27.914062 16.84375 -28.25 C 17.914062 -28.59375 19.023438 -28.765625 20.171875 -28.765625 C 22.035156 -28.765625 23.535156 -28.425781 24.671875 -27.75 C 26.003906 -26.945312 26.671875 -25.6875 26.671875 -23.96875 L 26.671875 -3.171875 C 26.671875 -1.910156 26.070312 -0.992188 24.875 -0.421875 C 23.84375 0.0976562 22.472656 0.359375 20.765625 0.359375 C 19.816406 0.359375 18.890625 0.253906 17.984375 0.046875 C 17.085938 -0.160156 16.378906 -0.425781 15.859375 -0.75 C 14.816406 -2.082031 13.785156 -3.578125 12.765625 -5.234375 L 10.53125 -8.96875 C 10.101562 -8.90625 9.890625 -8.675781 9.890625 -8.28125 C 9.890625 -8.03125 10.101562 -7.554688 10.53125 -6.859375 L 13.265625 -2.421875 L 13.265625 -1.25 C 11.566406 -0.15625 9.648438 0.390625 7.515625 0.390625 C 5.390625 0.390625 3.722656 0.00390625 2.515625 -0.765625 C 1.304688 -1.546875 0.703125 -2.644531 0.703125 -4.0625 Z M 0.703125 -4.0625 "/></g></g></g></svg>